<svg width="32" height="32" viewBox="0 0 32 32" fill="none" xmlns="http://www.w3.org/2000/svg">
<path d="M20 16C18.8937 16 18 16.8937 18 18C18 19.1063 18.8937 20 20 20H26C29.3125 20 32 22.6312 32 26C32 29.3125 29.3125 32 26 32H8.725C9.26875 31.3813 9.93125 30.5875 10.6 29.7C10.9938 29.175 11.4 28.6 11.7875 28H26C27.1063 28 28 27.1063 28 26C28 24.8937 27.1063 24 26 24H20C16.6312 24 13.9438 21.3125 13.9438 18C13.9438 14.6312 16.6312 12 20 12H22.6313C21.2625 10.0938 20 7.8375 20 6C20 2.68625 22.6312 0 26 0C29.3125 0 32 2.68625 32 6C32 10 26 16 26 16H20ZM26 8C27.1063 8 28 7.10625 28 6C28 4.89562 27.1063 4 26 4C24.8937 4 24 4.89562 24 6C24 7.10625 24.8937 8 26 8ZM7.39375 30.4875C7.38125 30.5 7.36875 30.5125 7.35625 30.525C7.0875 30.8375 6.84375 31.1063 6.64375 31.325C6.61875 31.35 6.59375 31.375 6.575 31.4C6.21875 31.7812 6 32 6 32C6 32 0 26 0 22C0 18.6312 2.68625 15.9438 6 15.9438C9.3125 15.9438 12 18.6312 12 22C12 23.8375 10.7375 26.0938 9.36875 28C8.63125 28.95 7.98125 29.8062 7.39375 30.4875ZM5.94375 24C7.10625 24 7.94375 23.1063 7.94375 22C7.94375 20.8937 7.10625 20 5.94375 20C4.89562 20 3.94375 20.8937 3.94375 22C3.94375 23.1063 4.89562 24 5.94375 24Z" fill="#005792"/>
</svg>
