<svg width="30" height="30" viewBox="0 0 30 30" fill="none" xmlns="http://www.w3.org/2000/svg">
<g clip-path="url(#clip0_165_327)">
<path d="M4.00702 11.0281C1.47079 15.4292 3.08312 22.1082 5.88778 26.1579C7.28774 28.1825 8.70512 30 10.6465 30C10.6831 30 10.7197 29.9993 10.7573 29.9978C11.6694 29.9614 12.3285 29.6806 12.9658 29.4092C13.6813 29.1043 14.4213 28.789 15.5819 28.789C16.6861 28.789 17.3908 29.094 18.0722 29.3889C18.7438 29.6795 19.4356 29.9801 20.4577 29.9609C22.6445 29.9202 23.9871 27.9591 25.1717 26.229C26.4078 24.4226 27.0278 22.6687 27.2371 21.9985L27.2455 21.9719C27.2853 21.8527 27.2291 21.7227 27.1149 21.6703C27.1117 21.6688 27.1001 21.664 27.0969 21.6626C26.7118 21.5051 23.3339 20.0066 23.2984 15.9223C23.2654 12.604 25.8325 10.8468 26.3473 10.5283L26.3713 10.5133C26.4271 10.4774 26.4659 10.4205 26.4791 10.3554C26.4923 10.2904 26.4785 10.2227 26.4411 10.168C24.6692 7.57501 21.9535 7.18422 20.8601 7.13721C20.7015 7.12137 20.5377 7.1134 20.3732 7.1134C19.0891 7.1134 17.8589 7.59842 16.8705 7.98812C16.1883 8.25714 15.599 8.48947 15.1926 8.48947C14.7359 8.48947 14.1433 8.25429 13.457 7.98203C12.5393 7.6178 11.4992 7.20508 10.398 7.20508C10.3717 7.20508 10.3459 7.20537 10.3204 7.20586C7.76007 7.24353 5.34079 8.70832 4.00702 11.0281Z" fill="black"/>
<path d="M20.8624 0.000250029C19.3119 0.0633976 17.452 1.01779 16.3404 2.31989C15.3956 3.41435 14.4727 5.23914 14.7158 7.07848C14.7311 7.19356 14.8247 7.28238 14.9405 7.29133C15.0451 7.2995 15.152 7.30363 15.2584 7.30373C16.7744 7.30373 18.4099 6.46501 19.5268 5.11451C20.7023 3.68848 21.2967 1.85838 21.1169 0.219103C21.1027 0.0906435 20.9897 -0.00476637 20.8624 0.000250029Z" fill="black"/>
</g>
<defs>
<clipPath id="clip0_165_327">
<rect width="30" height="30" fill="white"/>
</clipPath>
</defs>
</svg>
