<svg width="29" height="29" viewBox="0 0 29 29" fill="none" xmlns="http://www.w3.org/2000/svg">
<path d="M19.4264 7.02365C19.9964 7.38225 20.7474 7.36918 21.2072 6.87693L23.3827 4.55601C23.8424 4.06381 23.7529 3.36654 23.1837 3.00648L23.1548 2.98011C20.7276 1.11165 17.6878 0 14.3877 0C8.87721 0 4.09262 3.09917 1.67578 7.64827L6.06661 11.1648C7.36061 7.82774 10.5937 5.45754 14.3877 5.45754C16.2413 5.45754 17.9587 6.02719 19.3841 6.99588L19.4264 7.02365Z" fill="#D50707"/>
<path d="M5.45754 14.3878C5.45754 13.2498 5.67856 12.1655 6.0668 11.1646L1.67592 7.64813C0.607682 9.65897 0 11.9521 0 14.3879C0 16.835 0.612722 19.1385 1.69021 21.1559L6.05503 17.579C5.67475 16.5865 5.45754 15.5138 5.45754 14.3878Z" fill="#FFD41D"/>
<path d="M19.3527 21.8046C17.9324 22.7575 16.227 23.3183 14.388 23.3183C10.5815 23.3183 7.34026 20.9328 6.05481 17.5786L1.68994 21.1554C4.11176 25.6894 8.88856 28.7755 14.3875 28.7755C17.9588 28.7755 21.2236 27.4716 23.7389 25.3175L19.3527 21.8046Z" fill="#1EB615"/>
<path d="M28.7233 13.1622C28.6346 12.4946 28.0109 11.9484 27.3375 11.9484H16.1909C15.5175 11.9484 14.9664 12.4994 14.9664 13.1729V15.8091C14.9664 16.4826 15.5175 17.0337 16.1909 17.0337H21.6948C22.3289 17.0337 22.7588 17.4673 22.5484 18.0171C21.8593 19.5611 20.7432 20.8716 19.3525 21.8047L23.7389 25.3176C26.8204 22.6786 28.7754 18.7627 28.7754 14.3877C28.7755 13.5553 28.7233 13.1622 28.7233 13.1622Z" fill="#0084FF"/>
</svg>
