<svg width="25" height="25" viewBox="0 0 25 25" fill="none" xmlns="http://www.w3.org/2000/svg">
<path d="M0.373047 4.87772C0.373047 2.45674 2.33564 0.494141 4.75662 0.494141H19.9895C22.4105 0.494141 24.373 2.45674 24.373 4.87772V20.1106C24.373 22.5315 22.4105 24.4941 19.9895 24.4941H4.75662C2.33564 24.4941 0.373047 22.5315 0.373047 20.1106V4.87772Z" fill="#1184D2"/>
<g clip-path="url(#clip0_613_236)">
<path d="M12.0486 6.33105C9.18154 6.33105 6.85938 6.65538 6.85938 8.92565V15.4121C6.85938 15.9829 7.11235 16.4954 7.50802 16.8521V18.0067C7.50802 18.3635 7.79992 18.6554 8.15667 18.6554H8.80532C9.16208 18.6554 9.45397 18.3635 9.45397 18.0067V17.3581H14.6432V18.0067C14.6432 18.3635 14.935 18.6554 15.2918 18.6554H15.9405C16.2972 18.6554 16.5891 18.3635 16.5891 18.0067V16.8521C16.9848 16.4954 17.2378 15.9829 17.2378 15.4121V8.92565C17.2378 6.65538 14.9156 6.33105 12.0486 6.33105ZM15.7199 8.27051H8.37721C8.73397 7.92673 9.65505 7.62835 12.0486 7.62835C14.4421 7.62835 15.3632 7.92673 15.7199 8.27051ZM15.9405 9.56781V11.5202H8.15667V9.56781H15.9405ZM15.7199 15.8856L15.5318 16.0608H8.56532L8.37721 15.8856C8.29289 15.8143 8.15667 15.6521 8.15667 15.4121V12.8175H15.9405V15.4121C15.9405 15.6521 15.8042 15.8143 15.7199 15.8856Z" fill="#FFB740"/>
<path d="M9.77864 15.4127C10.316 15.4127 10.7516 14.9771 10.7516 14.4398C10.7516 13.9024 10.316 13.4668 9.77864 13.4668C9.24128 13.4668 8.80566 13.9024 8.80566 14.4398C8.80566 14.9771 9.24128 15.4127 9.77864 15.4127Z" fill="#FFB740"/>
<path d="M14.3187 15.4127C14.856 15.4127 15.2916 14.9771 15.2916 14.4398C15.2916 13.9024 14.856 13.4668 14.3187 13.4668C13.7813 13.4668 13.3457 13.9024 13.3457 14.4398C13.3457 14.9771 13.7813 15.4127 14.3187 15.4127Z" fill="#FFB740"/>
</g>
<defs>
<clipPath id="clip0_613_236">
<rect width="15.5676" height="15.5676" fill="white" transform="translate(4.26465 5.03418)"/>
</clipPath>
</defs>
</svg>
