<svg width="40" height="41" viewBox="0 0 40 41" fill="none" xmlns="http://www.w3.org/2000/svg">
<path d="M0 4.76639C0 2.34541 1.96259 0.382812 4.38358 0.382812H35.6164C38.0374 0.382812 40 2.34541 40 4.76639V35.9992C40 38.4202 38.0374 40.3828 35.6164 40.3828H4.38358C1.96259 40.3828 0 38.4202 0 35.9992V4.76639Z" fill="#1184D2"/>
<mask id="mask0_788_34" style="mask-type:alpha" maskUnits="userSpaceOnUse" x="6" y="6" width="28" height="28">
<rect x="6.48535" y="6.87012" width="27.027" height="27.027" fill="#D9D9D9"/>
</mask>
<g mask="url(#mask0_788_34)">
<path d="M23.2921 27.7037C22.5225 27.7037 21.875 27.4409 21.3495 26.9154C20.824 26.3899 20.5612 25.7424 20.5612 24.9728C20.5612 24.2033 20.824 23.5558 21.3495 23.0303C21.875 22.5047 22.5225 22.242 23.2921 22.242C24.0616 22.242 24.7091 22.5047 25.2346 23.0303C25.7602 23.5558 26.0229 24.2033 26.0229 24.9728C26.0229 25.7424 25.7602 26.3899 25.2346 26.9154C24.7091 27.4409 24.0616 27.7037 23.2921 27.7037ZM11.8056 32.349C11.0736 32.349 10.4495 32.0909 9.93339 31.5747C9.41725 31.0586 9.15918 30.4345 9.15918 29.7026V12.7544C9.15918 12.0224 9.41725 11.3936 9.93339 10.8681C10.4495 10.3426 11.0736 10.0798 11.8056 10.0798H13.3822V8.39062H15.6907V10.0798H24.3056V8.39062H26.6141V10.0798H28.1907C28.9227 10.0798 29.5514 10.3426 30.077 10.8681C30.6025 11.3936 30.8653 12.0224 30.8653 12.7544V29.7026C30.8653 30.4345 30.6025 31.0586 30.077 31.5747C29.5514 32.0909 28.9227 32.349 28.1907 32.349H11.8056ZM11.8056 29.7026H28.1907V17.8501H11.8056V29.7026ZM11.8056 16.1609H28.1907V12.7544H11.8056V16.1609Z" fill="#FFB740"/>
</g>
</svg>
