<svg width="41" height="41" viewBox="0 0 41 41" fill="none" xmlns="http://www.w3.org/2000/svg">
<path d="M0.714844 5.11405C0.714844 2.69306 2.67744 0.730469 5.09842 0.730469H36.3313C38.7522 0.730469 40.7148 2.69306 40.7148 5.11405V36.3469C40.7148 38.7679 38.7522 40.7305 36.3313 40.7305H5.09842C2.67744 40.7305 0.714844 38.7679 0.714844 36.3469V5.11405Z" fill="#1184D2"/>
<path d="M20.7137 7.21583C17.8935 7.21283 15.143 8.09226 12.8476 9.7309C10.5523 11.3695 8.82711 13.6852 7.9139 16.3535C7.44221 17.7643 7.20122 19.2418 7.2002 20.7293C7.2002 23.4021 7.99275 26.0148 9.47763 28.237C10.9625 30.4593 13.073 32.1914 15.5423 33.2142C18.0116 34.237 20.7287 34.5046 23.3501 33.9832C25.9714 33.4618 28.3793 32.1747 30.2692 30.2848C32.1591 28.3949 33.4461 25.9871 33.9676 23.3657C34.489 20.7443 34.2214 18.0272 33.1986 15.5579C32.1758 13.0887 30.4437 10.9781 28.2214 9.49327C25.9991 8.00838 23.3864 7.21583 20.7137 7.21583V7.21583ZM19.0991 30.8849C16.683 30.4985 14.4834 29.2641 12.8947 27.4031C11.306 25.5422 10.432 23.1762 10.4294 20.7293C10.4248 20.1884 10.4679 19.6481 10.5581 19.1147L16.9112 21.1973C16.9833 21.8498 17.2226 22.4726 17.6058 23.0055C17.9891 23.5384 18.5035 23.9634 19.0991 24.2393V30.8849ZM20.7137 16.9034C20.37 16.8979 20.0273 16.9412 19.6958 17.0321C19.0146 17.2266 18.3969 17.598 17.9057 18.1085L14.5946 17.0321L11.5526 16.0493C12.4141 14.3606 13.7256 12.9428 15.3423 11.9527C16.959 10.9625 18.8179 10.4385 20.7137 10.4385C22.6095 10.4385 24.4684 10.9625 26.0851 11.9527C27.7018 12.9428 29.0133 14.3606 29.8748 16.0493L26.8328 17.0321L23.5217 18.1085C23.0305 17.598 22.4129 17.2266 21.7316 17.0321C21.4001 16.9412 21.0574 16.8979 20.7137 16.9034V16.9034ZM22.3283 30.9434V24.2393C22.9177 23.9675 23.428 23.5497 23.8109 23.0256C24.1937 22.5015 24.4365 21.8883 24.5162 21.2441L30.8693 19.1615C30.9569 19.6795 30.9999 20.204 30.998 20.7293C30.9954 23.1762 30.1214 25.5422 28.5327 27.4031C26.944 29.2641 24.7445 30.4985 22.3283 30.8849V30.9434Z" fill="#FFB740"/>
</svg>
