<svg width="41" height="41" viewBox="0 0 41 41" fill="none" xmlns="http://www.w3.org/2000/svg">
<path d="M0.220703 5.11502C0.220703 2.69404 2.1833 0.731445 4.60428 0.731445H35.8371C38.2581 0.731445 40.2207 2.69404 40.2207 5.11502V36.3479C40.2207 38.7688 38.2581 40.7314 35.8371 40.7314H4.60428C2.1833 40.7314 0.220703 38.7688 0.220703 36.3479V5.11502Z" fill="#1184D2"/>
<mask id="mask0_788_31" style="mask-type:alpha" maskUnits="userSpaceOnUse" x="3" y="5" width="33" height="33">
<rect x="3.46289" y="5.05762" width="32.4324" height="32.4324" fill="#D9D9D9"/>
</mask>
<g mask="url(#mask0_788_31)">
<path d="M24.4081 31.7134H13.5973C13.0343 31.7134 12.5557 31.5164 12.1615 31.1222C11.7674 30.7281 11.5703 30.2495 11.5703 29.6864V14.1121H13.5973V29.6864H24.4081V31.7134ZM18.2595 13.2337C17.4937 13.2337 16.8462 12.9691 16.3169 12.4398C15.7877 11.9105 15.523 11.263 15.523 10.4972C15.523 9.73146 15.7877 9.08394 16.3169 8.55466C16.8462 8.02538 17.4937 7.76074 18.2595 7.76074C19.0253 7.76074 19.6728 8.02538 20.2021 8.55466C20.7313 9.08394 20.996 9.73146 20.996 10.4972C20.996 11.263 20.7313 11.9105 20.2021 12.4398C19.6728 12.9691 19.0253 13.2337 18.2595 13.2337ZM25.7595 34.7878V28.3351H17.4825C16.7843 28.3351 16.1874 28.0929 15.6919 27.6087C15.1964 27.1245 14.9487 26.5333 14.9487 25.8351V18.1324C14.9487 17.2089 15.2696 16.4319 15.9115 15.8013C16.5534 15.1707 17.3361 14.8553 18.2595 14.8553C19.1829 14.8553 19.9656 15.1707 20.6075 15.8013C21.2494 16.4319 21.5703 17.2089 21.5703 18.1324V24.9567H25.2527C25.9509 24.9567 26.5478 25.1988 27.0433 25.683C27.5388 26.1673 27.7865 26.7585 27.7865 27.4567V34.7878H25.7595Z" fill="#FFB740"/>
</g>
</svg>
