<svg width="145" height="145" viewBox="0 0 145 145" fill="none" xmlns="http://www.w3.org/2000/svg">
<g clip-path="url(#clip0_831_2)">
<path d="M144.98 0.381836H0.413574V144.948H144.98V0.381836Z" fill="white"/>
<path d="M47.2998 8.19531H43.3926V12.1025H47.2998V8.19531Z" fill="black"/>
<path d="M55.1142 8.19531H51.207V12.1025H55.1142V8.19531Z" fill="black"/>
<path d="M78.5576 8.19531H74.6504V12.1025H78.5576V8.19531Z" fill="black"/>
<path d="M82.4648 8.19531H78.5576V12.1025H82.4648V8.19531Z" fill="black"/>
<path d="M86.372 8.19531H82.4648V12.1025H86.372V8.19531Z" fill="black"/>
<path d="M94.186 8.19531H90.2788V12.1025H94.186V8.19531Z" fill="black"/>
<path d="M98.0932 8.19531H94.186V12.1025H98.0932V8.19531Z" fill="black"/>
<path d="M105.908 8.19531H102V12.1025H105.908V8.19531Z" fill="black"/>
<path d="M47.2998 12.1025H43.3926V16.0097H47.2998V12.1025Z" fill="black"/>
<path d="M51.207 12.1025H47.2998V16.0097H51.207V12.1025Z" fill="black"/>
<path d="M62.9287 12.1025H59.0215V16.0097H62.9287V12.1025Z" fill="black"/>
<path d="M66.8359 12.1025H62.9287V16.0097H66.8359V12.1025Z" fill="black"/>
<path d="M70.7431 12.1025H66.8359V16.0097H70.7431V12.1025Z" fill="black"/>
<path d="M90.2788 12.1025H86.3716V16.0097H90.2788V12.1025Z" fill="black"/>
<path d="M94.186 12.1025H90.2788V16.0097H94.186V12.1025Z" fill="black"/>
<path d="M105.908 12.1025H102V16.0097H105.908V12.1025Z" fill="black"/>
<path d="M43.3925 16.0098H39.4854V19.917H43.3925V16.0098Z" fill="black"/>
<path d="M47.2998 16.0098H43.3926V19.917H47.2998V16.0098Z" fill="black"/>
<path d="M51.207 16.0098H47.2998V19.917H51.207V16.0098Z" fill="black"/>
<path d="M55.1142 16.0098H51.207V19.917H55.1142V16.0098Z" fill="black"/>
<path d="M70.7431 16.0098H66.8359V19.917H70.7431V16.0098Z" fill="black"/>
<path d="M82.4648 16.0098H78.5576V19.917H82.4648V16.0098Z" fill="black"/>
<path d="M86.372 16.0098H82.4648V19.917H86.372V16.0098Z" fill="black"/>
<path d="M94.186 16.0098H90.2788V19.917H94.186V16.0098Z" fill="black"/>
<path d="M102 16.0098H98.0933V19.917H102V16.0098Z" fill="black"/>
<path d="M105.908 16.0098H102V19.917H105.908V16.0098Z" fill="black"/>
<path d="M43.3925 19.918H39.4854V23.8252H43.3925V19.918Z" fill="black"/>
<path d="M47.2998 19.918H43.3926V23.8252H47.2998V19.918Z" fill="black"/>
<path d="M62.9287 19.918H59.0215V23.8252H62.9287V19.918Z" fill="black"/>
<path d="M66.8359 19.918H62.9287V23.8252H66.8359V19.918Z" fill="black"/>
<path d="M74.6504 19.918H70.7432V23.8252H74.6504V19.918Z" fill="black"/>
<path d="M78.5576 19.918H74.6504V23.8252H78.5576V19.918Z" fill="black"/>
<path d="M82.4648 19.918H78.5576V23.8252H82.4648V19.918Z" fill="black"/>
<path d="M86.372 19.918H82.4648V23.8252H86.372V19.918Z" fill="black"/>
<path d="M90.2788 19.918H86.3716V23.8252H90.2788V19.918Z" fill="black"/>
<path d="M94.186 19.918H90.2788V23.8252H94.186V19.918Z" fill="black"/>
<path d="M102 19.918H98.0933V23.8252H102V19.918Z" fill="black"/>
<path d="M105.908 19.918H102V23.8252H105.908V19.918Z" fill="black"/>
<path d="M59.0214 23.8242H55.1143V27.7314H59.0214V23.8242Z" fill="black"/>
<path d="M62.9287 23.8242H59.0215V27.7314H62.9287V23.8242Z" fill="black"/>
<path d="M66.8359 23.8242H62.9287V27.7314H66.8359V23.8242Z" fill="black"/>
<path d="M74.6504 23.8242H70.7432V27.7314H74.6504V23.8242Z" fill="black"/>
<path d="M82.4648 23.8242H78.5576V27.7314H82.4648V23.8242Z" fill="black"/>
<path d="M90.2793 23.8242H86.3721V27.7314H90.2793V23.8242Z" fill="black"/>
<path d="M94.186 23.8242H90.2788V27.7314H94.186V23.8242Z" fill="black"/>
<path d="M102 23.8242H98.0933V27.7314H102V23.8242Z" fill="black"/>
<path d="M55.1142 27.7305H51.207V31.6377H55.1142V27.7305Z" fill="black"/>
<path d="M62.9287 27.7305H59.0215V31.6377H62.9287V27.7305Z" fill="black"/>
<path d="M66.8359 27.7305H62.9287V31.6377H66.8359V27.7305Z" fill="black"/>
<path d="M74.6504 27.7305H70.7432V31.6377H74.6504V27.7305Z" fill="black"/>
<path d="M90.2788 27.7305H86.3716V31.6377H90.2788V27.7305Z" fill="black"/>
<path d="M105.908 27.7305H102V31.6377H105.908V27.7305Z" fill="black"/>
<path d="M43.3925 31.6396H39.4854V35.5468H43.3925V31.6396Z" fill="black"/>
<path d="M51.207 31.6396H47.2998V35.5468H51.207V31.6396Z" fill="black"/>
<path d="M59.0214 31.6396H55.1143V35.5468H59.0214V31.6396Z" fill="black"/>
<path d="M66.8359 31.6396H62.9287V35.5468H66.8359V31.6396Z" fill="black"/>
<path d="M74.6504 31.6396H70.7432V35.5468H74.6504V31.6396Z" fill="black"/>
<path d="M82.4648 31.6396H78.5576V35.5468H82.4648V31.6396Z" fill="black"/>
<path d="M90.2788 31.6396H86.3716V35.5468H90.2788V31.6396Z" fill="black"/>
<path d="M98.0932 31.6396H94.186V35.5468H98.0932V31.6396Z" fill="black"/>
<path d="M105.908 31.6396H102V35.5468H105.908V31.6396Z" fill="black"/>
<path d="M51.207 35.5449H47.2998V39.4521H51.207V35.5449Z" fill="black"/>
<path d="M70.7431 35.5449H66.8359V39.4521H70.7431V35.5449Z" fill="black"/>
<path d="M74.6504 35.5449H70.7432V39.4521H74.6504V35.5449Z" fill="black"/>
<path d="M98.0932 35.5449H94.186V39.4521H98.0932V35.5449Z" fill="black"/>
<path d="M102 35.5449H98.0933V39.4521H102V35.5449Z" fill="black"/>
<path d="M23.8569 39.4531H19.9497V43.3603H23.8569V39.4531Z" fill="black"/>
<path d="M27.7641 39.4531H23.8569V43.3603H27.7641V39.4531Z" fill="black"/>
<path d="M35.5786 39.4531H31.6714V43.3603H35.5786V39.4531Z" fill="black"/>
<path d="M39.4853 39.4531H35.5781V43.3603H39.4853V39.4531Z" fill="black"/>
<path d="M55.1142 39.4531H51.207V43.3603H55.1142V39.4531Z" fill="black"/>
<path d="M59.0214 39.4531H55.1143V43.3603H59.0214V39.4531Z" fill="black"/>
<path d="M62.9287 39.4531H59.0215V43.3603H62.9287V39.4531Z" fill="black"/>
<path d="M66.8359 39.4531H62.9287V43.3603H66.8359V39.4531Z" fill="black"/>
<path d="M70.7431 39.4531H66.8359V43.3603H70.7431V39.4531Z" fill="black"/>
<path d="M74.6504 39.4531H70.7432V43.3603H74.6504V39.4531Z" fill="black"/>
<path d="M82.4648 39.4531H78.5576V43.3603H82.4648V39.4531Z" fill="black"/>
<path d="M90.2793 39.4531H86.3721V43.3603H90.2793V39.4531Z" fill="black"/>
<path d="M102 39.4531H98.0933V43.3603H102V39.4531Z" fill="black"/>
<path d="M105.908 39.4531H102V43.3603H105.908V39.4531Z" fill="black"/>
<path d="M125.444 39.4531H121.537V43.3603H125.444V39.4531Z" fill="black"/>
<path d="M129.351 39.4531H125.444V43.3603H129.351V39.4531Z" fill="black"/>
<path d="M16.0424 43.3604H12.1353V47.2676H16.0424V43.3604Z" fill="black"/>
<path d="M27.7641 43.3604H23.8569V47.2676H27.7641V43.3604Z" fill="black"/>
<path d="M31.6714 43.3604H27.7642V47.2676H31.6714V43.3604Z" fill="black"/>
<path d="M43.3925 43.3604H39.4854V47.2676H43.3925V43.3604Z" fill="black"/>
<path d="M59.0214 43.3604H55.1143V47.2676H59.0214V43.3604Z" fill="black"/>
<path d="M62.9287 43.3604H59.0215V47.2676H62.9287V43.3604Z" fill="black"/>
<path d="M66.8359 43.3604H62.9287V47.2676H66.8359V43.3604Z" fill="black"/>
<path d="M74.6504 43.3604H70.7432V47.2676H74.6504V43.3604Z" fill="black"/>
<path d="M82.4648 43.3604H78.5576V47.2676H82.4648V43.3604Z" fill="black"/>
<path d="M102 43.3604H98.0933V47.2676H102V43.3604Z" fill="black"/>
<path d="M109.815 43.3604H105.908V47.2676H109.815V43.3604Z" fill="black"/>
<path d="M117.629 43.3604H113.722V47.2676H117.629V43.3604Z" fill="black"/>
<path d="M121.537 43.3604H117.629V47.2676H121.537V43.3604Z" fill="black"/>
<path d="M125.444 43.3604H121.537V47.2676H125.444V43.3604Z" fill="black"/>
<path d="M129.351 43.3604H125.444V47.2676H129.351V43.3604Z" fill="black"/>
<path d="M133.258 43.3604H129.351V47.2676H133.258V43.3604Z" fill="black"/>
<path d="M12.1352 47.2686H8.22803V51.1757H12.1352V47.2686Z" fill="black"/>
<path d="M27.7641 47.2686H23.8569V51.1757H27.7641V47.2686Z" fill="black"/>
<path d="M35.5786 47.2686H31.6714V51.1757H35.5786V47.2686Z" fill="black"/>
<path d="M55.1142 47.2686H51.207V51.1757H55.1142V47.2686Z" fill="black"/>
<path d="M59.0214 47.2686H55.1143V51.1757H59.0214V47.2686Z" fill="black"/>
<path d="M70.7431 47.2686H66.8359V51.1757H70.7431V47.2686Z" fill="black"/>
<path d="M82.4648 47.2686H78.5576V51.1757H82.4648V47.2686Z" fill="black"/>
<path d="M94.186 47.2686H90.2788V51.1757H94.186V47.2686Z" fill="black"/>
<path d="M102 47.2686H98.0933V51.1757H102V47.2686Z" fill="black"/>
<path d="M109.815 47.2686H105.908V51.1757H109.815V47.2686Z" fill="black"/>
<path d="M117.629 47.2686H113.722V51.1757H117.629V47.2686Z" fill="black"/>
<path d="M129.351 47.2686H125.444V51.1757H129.351V47.2686Z" fill="black"/>
<path d="M133.258 47.2686H129.351V51.1757H133.258V47.2686Z" fill="black"/>
<path d="M137.165 47.2686H133.258V51.1757H137.165V47.2686Z" fill="black"/>
<path d="M16.0424 51.1738H12.1353V55.081H16.0424V51.1738Z" fill="black"/>
<path d="M19.9497 51.1738H16.0425V55.081H19.9497V51.1738Z" fill="black"/>
<path d="M27.7641 51.1738H23.8569V55.081H27.7641V51.1738Z" fill="black"/>
<path d="M47.2998 51.1738H43.3926V55.081H47.2998V51.1738Z" fill="black"/>
<path d="M51.207 51.1738H47.2998V55.081H51.207V51.1738Z" fill="black"/>
<path d="M59.0214 51.1738H55.1143V55.081H59.0214V51.1738Z" fill="black"/>
<path d="M62.9287 51.1738H59.0215V55.081H62.9287V51.1738Z" fill="black"/>
<path d="M78.5576 51.1738H74.6504V55.081H78.5576V51.1738Z" fill="black"/>
<path d="M86.372 51.1738H82.4648V55.081H86.372V51.1738Z" fill="black"/>
<path d="M105.908 51.1738H102V55.081H105.908V51.1738Z" fill="black"/>
<path d="M113.722 51.1738H109.815V55.081H113.722V51.1738Z" fill="black"/>
<path d="M117.629 51.1738H113.722V55.081H117.629V51.1738Z" fill="black"/>
<path d="M121.537 51.1738H117.629V55.081H121.537V51.1738Z" fill="black"/>
<path d="M125.444 51.1738H121.537V55.081H125.444V51.1738Z" fill="black"/>
<path d="M129.351 51.1738H125.444V55.081H129.351V51.1738Z" fill="black"/>
<path d="M133.258 51.1738H129.351V55.081H133.258V51.1738Z" fill="black"/>
<path d="M137.165 51.1738H133.258V55.081H137.165V51.1738Z" fill="black"/>
<path d="M23.8569 55.0811H19.9497V58.9882H23.8569V55.0811Z" fill="black"/>
<path d="M27.7641 55.0811H23.8569V58.9882H27.7641V55.0811Z" fill="black"/>
<path d="M35.5786 55.0811H31.6714V58.9882H35.5786V55.0811Z" fill="black"/>
<path d="M39.4853 55.0811H35.5781V58.9882H39.4853V55.0811Z" fill="black"/>
<path d="M43.3925 55.0811H39.4854V58.9882H43.3925V55.0811Z" fill="black"/>
<path d="M66.8359 55.0811H62.9287V58.9882H66.8359V55.0811Z" fill="black"/>
<path d="M74.6504 55.0811H70.7432V58.9882H74.6504V55.0811Z" fill="black"/>
<path d="M82.4648 55.0811H78.5576V58.9882H82.4648V55.0811Z" fill="black"/>
<path d="M86.372 55.0811H82.4648V58.9882H86.372V55.0811Z" fill="black"/>
<path d="M90.2788 55.0811H86.3716V58.9882H90.2788V55.0811Z" fill="black"/>
<path d="M94.186 55.0811H90.2788V58.9882H94.186V55.0811Z" fill="black"/>
<path d="M98.0932 55.0811H94.186V58.9882H98.0932V55.0811Z" fill="black"/>
<path d="M105.908 55.0811H102V58.9882H105.908V55.0811Z" fill="black"/>
<path d="M113.722 55.0811H109.815V58.9882H113.722V55.0811Z" fill="black"/>
<path d="M117.629 55.0811H113.722V58.9882H117.629V55.0811Z" fill="black"/>
<path d="M121.537 55.0811H117.629V58.9882H121.537V55.0811Z" fill="black"/>
<path d="M125.444 55.0811H121.537V58.9882H125.444V55.0811Z" fill="black"/>
<path d="M137.165 55.0811H133.258V58.9882H137.165V55.0811Z" fill="black"/>
<path d="M12.1352 58.9893H8.22803V62.8964H12.1352V58.9893Z" fill="black"/>
<path d="M16.0424 58.9893H12.1353V62.8964H16.0424V58.9893Z" fill="black"/>
<path d="M23.8569 58.9893H19.9497V62.8964H23.8569V58.9893Z" fill="black"/>
<path d="M55.1142 58.9893H51.207V62.8964H55.1142V58.9893Z" fill="black"/>
<path d="M70.7431 58.9893H66.8359V62.8964H70.7431V58.9893Z" fill="black"/>
<path d="M74.6504 58.9893H70.7432V62.8964H74.6504V58.9893Z" fill="black"/>
<path d="M78.5576 58.9893H74.6504V62.8964H78.5576V58.9893Z" fill="black"/>
<path d="M86.372 58.9893H82.4648V62.8964H86.372V58.9893Z" fill="black"/>
<path d="M94.186 58.9893H90.2788V62.8964H94.186V58.9893Z" fill="black"/>
<path d="M98.0932 58.9893H94.186V62.8964H98.0932V58.9893Z" fill="black"/>
<path d="M102 58.9893H98.0933V62.8964H102V58.9893Z" fill="black"/>
<path d="M129.351 58.9893H125.444V62.8964H129.351V58.9893Z" fill="black"/>
<path d="M133.258 58.9893H129.351V62.8964H133.258V58.9893Z" fill="black"/>
<path d="M16.0424 62.8975H12.1353V66.8046H16.0424V62.8975Z" fill="black"/>
<path d="M19.9497 62.8975H16.0425V66.8046H19.9497V62.8975Z" fill="black"/>
<path d="M23.8569 62.8975H19.9497V66.8046H23.8569V62.8975Z" fill="black"/>
<path d="M27.7641 62.8975H23.8569V66.8046H27.7641V62.8975Z" fill="black"/>
<path d="M35.5786 62.8975H31.6714V66.8046H35.5786V62.8975Z" fill="black"/>
<path d="M39.4853 62.8975H35.5781V66.8046H39.4853V62.8975Z" fill="black"/>
<path d="M55.1142 62.8975H51.207V66.8046H55.1142V62.8975Z" fill="black"/>
<path d="M59.0214 62.8975H55.1143V66.8046H59.0214V62.8975Z" fill="black"/>
<path d="M82.4648 62.8975H78.5576V66.8046H82.4648V62.8975Z" fill="black"/>
<path d="M90.2788 62.8975H86.3716V66.8046H90.2788V62.8975Z" fill="black"/>
<path d="M105.908 62.8975H102V66.8046H105.908V62.8975Z" fill="black"/>
<path d="M113.722 62.8975H109.815V66.8046H113.722V62.8975Z" fill="black"/>
<path d="M121.537 62.8975H117.629V66.8046H121.537V62.8975Z" fill="black"/>
<path d="M125.444 62.8975H121.537V66.8046H125.444V62.8975Z" fill="black"/>
<path d="M16.0424 66.8027H12.1353V70.7099H16.0424V66.8027Z" fill="black"/>
<path d="M19.9497 66.8027H16.0425V70.7099H19.9497V66.8027Z" fill="black"/>
<path d="M23.8569 66.8027H19.9497V70.7099H23.8569V66.8027Z" fill="black"/>
<path d="M31.6714 66.8027H27.7642V70.7099H31.6714V66.8027Z" fill="black"/>
<path d="M62.9287 66.8027H59.0215V70.7099H62.9287V66.8027Z" fill="black"/>
<path d="M66.8359 66.8027H62.9287V70.7099H66.8359V66.8027Z" fill="black"/>
<path d="M74.6504 66.8027H70.7432V70.7099H74.6504V66.8027Z" fill="black"/>
<path d="M78.5576 66.8027H74.6504V70.7099H78.5576V66.8027Z" fill="black"/>
<path d="M86.372 66.8027H82.4648V70.7099H86.372V66.8027Z" fill="black"/>
<path d="M102 66.8027H98.0933V70.7099H102V66.8027Z" fill="black"/>
<path d="M105.908 66.8027H102V70.7099H105.908V66.8027Z" fill="black"/>
<path d="M109.815 66.8027H105.908V70.7099H109.815V66.8027Z" fill="black"/>
<path d="M117.629 66.8027H113.722V70.7099H117.629V66.8027Z" fill="black"/>
<path d="M125.444 66.8027H121.537V70.7099H125.444V66.8027Z" fill="black"/>
<path d="M129.351 66.8027H125.444V70.7099H129.351V66.8027Z" fill="black"/>
<path d="M133.258 66.8027H129.351V70.7099H133.258V66.8027Z" fill="black"/>
<path d="M137.165 66.8027H133.258V70.7099H137.165V66.8027Z" fill="black"/>
<path d="M12.1352 70.709H8.22803V74.6162H12.1352V70.709Z" fill="black"/>
<path d="M16.0424 70.709H12.1353V74.6162H16.0424V70.709Z" fill="black"/>
<path d="M27.7641 70.709H23.8569V74.6162H27.7641V70.709Z" fill="black"/>
<path d="M35.5786 70.709H31.6714V74.6162H35.5786V70.709Z" fill="black"/>
<path d="M39.4853 70.709H35.5781V74.6162H39.4853V70.709Z" fill="black"/>
<path d="M47.2998 70.709H43.3926V74.6162H47.2998V70.709Z" fill="black"/>
<path d="M51.207 70.709H47.2998V74.6162H51.207V70.709Z" fill="black"/>
<path d="M62.9287 70.709H59.0215V74.6162H62.9287V70.709Z" fill="black"/>
<path d="M74.6504 70.709H70.7432V74.6162H74.6504V70.709Z" fill="black"/>
<path d="M82.4648 70.709H78.5576V74.6162H82.4648V70.709Z" fill="black"/>
<path d="M86.372 70.709H82.4648V74.6162H86.372V70.709Z" fill="black"/>
<path d="M102 70.709H98.0933V74.6162H102V70.709Z" fill="black"/>
<path d="M109.815 70.709H105.908V74.6162H109.815V70.709Z" fill="black"/>
<path d="M113.722 70.709H109.815V74.6162H113.722V70.709Z" fill="black"/>
<path d="M117.629 70.709H113.722V74.6162H117.629V70.709Z" fill="black"/>
<path d="M121.537 70.709H117.629V74.6162H121.537V70.709Z" fill="black"/>
<path d="M125.444 70.709H121.537V74.6162H125.444V70.709Z" fill="black"/>
<path d="M133.258 70.709H129.351V74.6162H133.258V70.709Z" fill="black"/>
<path d="M12.1352 74.6182H8.22803V78.5254H12.1352V74.6182Z" fill="black"/>
<path d="M23.8569 74.6182H19.9497V78.5254H23.8569V74.6182Z" fill="black"/>
<path d="M31.6714 74.6182H27.7642V78.5254H31.6714V74.6182Z" fill="black"/>
<path d="M43.3925 74.6182H39.4854V78.5254H43.3925V74.6182Z" fill="black"/>
<path d="M47.2998 74.6182H43.3926V78.5254H47.2998V74.6182Z" fill="black"/>
<path d="M55.1142 74.6182H51.207V78.5254H55.1142V74.6182Z" fill="black"/>
<path d="M59.0214 74.6182H55.1143V78.5254H59.0214V74.6182Z" fill="black"/>
<path d="M66.8359 74.6182H62.9287V78.5254H66.8359V74.6182Z" fill="black"/>
<path d="M78.5576 74.6182H74.6504V78.5254H78.5576V74.6182Z" fill="black"/>
<path d="M82.4648 74.6182H78.5576V78.5254H82.4648V74.6182Z" fill="black"/>
<path d="M90.2788 74.6182H86.3716V78.5254H90.2788V74.6182Z" fill="black"/>
<path d="M94.186 74.6182H90.2788V78.5254H94.186V74.6182Z" fill="black"/>
<path d="M98.0932 74.6182H94.186V78.5254H98.0932V74.6182Z" fill="black"/>
<path d="M105.908 74.6182H102V78.5254H105.908V74.6182Z" fill="black"/>
<path d="M113.722 74.6182H109.815V78.5254H113.722V74.6182Z" fill="black"/>
<path d="M117.629 74.6182H113.722V78.5254H117.629V74.6182Z" fill="black"/>
<path d="M121.537 74.6182H117.629V78.5254H121.537V74.6182Z" fill="black"/>
<path d="M125.444 74.6182H121.537V78.5254H125.444V74.6182Z" fill="black"/>
<path d="M137.165 74.6182H133.258V78.5254H137.165V74.6182Z" fill="black"/>
<path d="M16.0424 78.5244H12.1353V82.4316H16.0424V78.5244Z" fill="black"/>
<path d="M23.8569 78.5244H19.9497V82.4316H23.8569V78.5244Z" fill="black"/>
<path d="M27.7641 78.5244H23.8569V82.4316H27.7641V78.5244Z" fill="black"/>
<path d="M31.6714 78.5244H27.7642V82.4316H31.6714V78.5244Z" fill="black"/>
<path d="M35.5786 78.5244H31.6714V82.4316H35.5786V78.5244Z" fill="black"/>
<path d="M39.4853 78.5244H35.5781V82.4316H39.4853V78.5244Z" fill="black"/>
<path d="M47.2998 78.5244H43.3926V82.4316H47.2998V78.5244Z" fill="black"/>
<path d="M55.1142 78.5244H51.207V82.4316H55.1142V78.5244Z" fill="black"/>
<path d="M62.9287 78.5244H59.0215V82.4316H62.9287V78.5244Z" fill="black"/>
<path d="M70.7431 78.5244H66.8359V82.4316H70.7431V78.5244Z" fill="black"/>
<path d="M78.5576 78.5244H74.6504V82.4316H78.5576V78.5244Z" fill="black"/>
<path d="M90.2793 78.5244H86.3721V82.4316H90.2793V78.5244Z" fill="black"/>
<path d="M102 78.5244H98.0933V82.4316H102V78.5244Z" fill="black"/>
<path d="M121.537 78.5244H117.629V82.4316H121.537V78.5244Z" fill="black"/>
<path d="M125.444 78.5244H121.537V82.4316H125.444V78.5244Z" fill="black"/>
<path d="M129.351 78.5244H125.444V82.4316H129.351V78.5244Z" fill="black"/>
<path d="M137.165 78.5244H133.258V82.4316H137.165V78.5244Z" fill="black"/>
<path d="M12.1352 82.4326H8.22803V86.3398H12.1352V82.4326Z" fill="black"/>
<path d="M16.0424 82.4326H12.1353V86.3398H16.0424V82.4326Z" fill="black"/>
<path d="M23.8569 82.4326H19.9497V86.3398H23.8569V82.4326Z" fill="black"/>
<path d="M31.6714 82.4326H27.7642V86.3398H31.6714V82.4326Z" fill="black"/>
<path d="M39.4853 82.4326H35.5781V86.3398H39.4853V82.4326Z" fill="black"/>
<path d="M47.2998 82.4326H43.3926V86.3398H47.2998V82.4326Z" fill="black"/>
<path d="M55.1142 82.4326H51.207V86.3398H55.1142V82.4326Z" fill="black"/>
<path d="M59.0214 82.4326H55.1143V86.3398H59.0214V82.4326Z" fill="black"/>
<path d="M62.9287 82.4326H59.0215V86.3398H62.9287V82.4326Z" fill="black"/>
<path d="M70.7431 82.4326H66.8359V86.3398H70.7431V82.4326Z" fill="black"/>
<path d="M78.5576 82.4326H74.6504V86.3398H78.5576V82.4326Z" fill="black"/>
<path d="M86.372 82.4326H82.4648V86.3398H86.372V82.4326Z" fill="black"/>
<path d="M98.0932 82.4326H94.186V86.3398H98.0932V82.4326Z" fill="black"/>
<path d="M102 82.4326H98.0933V86.3398H102V82.4326Z" fill="black"/>
<path d="M105.908 82.4326H102V86.3398H105.908V82.4326Z" fill="black"/>
<path d="M109.815 82.4326H105.908V86.3398H109.815V82.4326Z" fill="black"/>
<path d="M117.629 82.4326H113.722V86.3398H117.629V82.4326Z" fill="black"/>
<path d="M121.537 82.4326H117.629V86.3398H121.537V82.4326Z" fill="black"/>
<path d="M125.444 82.4326H121.537V86.3398H125.444V82.4326Z" fill="black"/>
<path d="M129.351 82.4326H125.444V86.3398H129.351V82.4326Z" fill="black"/>
<path d="M133.258 82.4326H129.351V86.3398H133.258V82.4326Z" fill="black"/>
<path d="M16.0424 86.3389H12.1353V90.246H16.0424V86.3389Z" fill="black"/>
<path d="M23.8569 86.3389H19.9497V90.246H23.8569V86.3389Z" fill="black"/>
<path d="M35.5786 86.3389H31.6714V90.246H35.5786V86.3389Z" fill="black"/>
<path d="M39.4853 86.3389H35.5781V90.246H39.4853V86.3389Z" fill="black"/>
<path d="M47.2998 86.3389H43.3926V90.246H47.2998V86.3389Z" fill="black"/>
<path d="M51.207 86.3389H47.2998V90.246H51.207V86.3389Z" fill="black"/>
<path d="M59.0214 86.3389H55.1143V90.246H59.0214V86.3389Z" fill="black"/>
<path d="M62.9287 86.3389H59.0215V90.246H62.9287V86.3389Z" fill="black"/>
<path d="M66.8359 86.3389H62.9287V90.246H66.8359V86.3389Z" fill="black"/>
<path d="M70.7431 86.3389H66.8359V90.246H70.7431V86.3389Z" fill="black"/>
<path d="M86.372 86.3389H82.4648V90.246H86.372V86.3389Z" fill="black"/>
<path d="M90.2793 86.3389H86.3721V90.246H90.2793V86.3389Z" fill="black"/>
<path d="M113.722 86.3389H109.815V90.246H113.722V86.3389Z" fill="black"/>
<path d="M117.629 86.3389H113.722V90.246H117.629V86.3389Z" fill="black"/>
<path d="M125.444 86.3389H121.537V90.246H125.444V86.3389Z" fill="black"/>
<path d="M137.165 86.3389H133.258V90.246H137.165V86.3389Z" fill="black"/>
<path d="M12.1352 90.2471H8.22803V94.1543H12.1352V90.2471Z" fill="black"/>
<path d="M16.0424 90.2471H12.1353V94.1543H16.0424V90.2471Z" fill="black"/>
<path d="M27.7641 90.2471H23.8569V94.1543H27.7641V90.2471Z" fill="black"/>
<path d="M39.4853 90.2471H35.5781V94.1543H39.4853V90.2471Z" fill="black"/>
<path d="M59.0214 90.2471H55.1143V94.1543H59.0214V90.2471Z" fill="black"/>
<path d="M70.7431 90.2471H66.8359V94.1543H70.7431V90.2471Z" fill="black"/>
<path d="M78.5576 90.2471H74.6504V94.1543H78.5576V90.2471Z" fill="black"/>
<path d="M82.4648 90.2471H78.5576V94.1543H82.4648V90.2471Z" fill="black"/>
<path d="M86.372 90.2471H82.4648V94.1543H86.372V90.2471Z" fill="black"/>
<path d="M90.2788 90.2471H86.3716V94.1543H90.2788V90.2471Z" fill="black"/>
<path d="M94.186 90.2471H90.2788V94.1543H94.186V90.2471Z" fill="black"/>
<path d="M98.0932 90.2471H94.186V94.1543H98.0932V90.2471Z" fill="black"/>
<path d="M105.908 90.2471H102V94.1543H105.908V90.2471Z" fill="black"/>
<path d="M113.722 90.2471H109.815V94.1543H113.722V90.2471Z" fill="black"/>
<path d="M121.537 90.2471H117.629V94.1543H121.537V90.2471Z" fill="black"/>
<path d="M125.444 90.2471H121.537V94.1543H125.444V90.2471Z" fill="black"/>
<path d="M129.351 90.2471H125.444V94.1543H129.351V90.2471Z" fill="black"/>
<path d="M12.1352 94.1533H8.22803V98.0605H12.1352V94.1533Z" fill="black"/>
<path d="M23.8569 94.1533H19.9497V98.0605H23.8569V94.1533Z" fill="black"/>
<path d="M27.7641 94.1533H23.8569V98.0605H27.7641V94.1533Z" fill="black"/>
<path d="M31.6714 94.1533H27.7642V98.0605H31.6714V94.1533Z" fill="black"/>
<path d="M35.5786 94.1533H31.6714V98.0605H35.5786V94.1533Z" fill="black"/>
<path d="M39.4853 94.1533H35.5781V98.0605H39.4853V94.1533Z" fill="black"/>
<path d="M47.2998 94.1533H43.3926V98.0605H47.2998V94.1533Z" fill="black"/>
<path d="M51.207 94.1533H47.2998V98.0605H51.207V94.1533Z" fill="black"/>
<path d="M55.1142 94.1533H51.207V98.0605H55.1142V94.1533Z" fill="black"/>
<path d="M59.0214 94.1533H55.1143V98.0605H59.0214V94.1533Z" fill="black"/>
<path d="M66.8359 94.1533H62.9287V98.0605H66.8359V94.1533Z" fill="black"/>
<path d="M70.7431 94.1533H66.8359V98.0605H70.7431V94.1533Z" fill="black"/>
<path d="M78.5576 94.1533H74.6504V98.0605H78.5576V94.1533Z" fill="black"/>
<path d="M82.4648 94.1533H78.5576V98.0605H82.4648V94.1533Z" fill="black"/>
<path d="M86.372 94.1533H82.4648V98.0605H86.372V94.1533Z" fill="black"/>
<path d="M94.186 94.1533H90.2788V98.0605H94.186V94.1533Z" fill="black"/>
<path d="M102 94.1533H98.0933V98.0605H102V94.1533Z" fill="black"/>
<path d="M113.722 94.1533H109.815V98.0605H113.722V94.1533Z" fill="black"/>
<path d="M121.537 94.1533H117.629V98.0605H121.537V94.1533Z" fill="black"/>
<path d="M133.258 94.1533H129.351V98.0605H133.258V94.1533Z" fill="black"/>
<path d="M137.165 94.1533H133.258V98.0605H137.165V94.1533Z" fill="black"/>
<path d="M12.1352 98.0605H8.22803V101.968H12.1352V98.0605Z" fill="black"/>
<path d="M19.9497 98.0605H16.0425V101.968H19.9497V98.0605Z" fill="black"/>
<path d="M23.8569 98.0605H19.9497V101.968H23.8569V98.0605Z" fill="black"/>
<path d="M47.2998 98.0605H43.3926V101.968H47.2998V98.0605Z" fill="black"/>
<path d="M55.1142 98.0605H51.207V101.968H55.1142V98.0605Z" fill="black"/>
<path d="M70.7431 98.0605H66.8359V101.968H70.7431V98.0605Z" fill="black"/>
<path d="M74.6504 98.0605H70.7432V101.968H74.6504V98.0605Z" fill="black"/>
<path d="M78.5576 98.0605H74.6504V101.968H78.5576V98.0605Z" fill="black"/>
<path d="M86.372 98.0605H82.4648V101.968H86.372V98.0605Z" fill="black"/>
<path d="M90.2788 98.0605H86.3716V101.968H90.2788V98.0605Z" fill="black"/>
<path d="M102 98.0605H98.0933V101.968H102V98.0605Z" fill="black"/>
<path d="M105.908 98.0605H102V101.968H105.908V98.0605Z" fill="black"/>
<path d="M117.629 98.0605H113.722V101.968H117.629V98.0605Z" fill="black"/>
<path d="M121.537 98.0605H117.629V101.968H121.537V98.0605Z" fill="black"/>
<path d="M129.351 98.0605H125.444V101.968H129.351V98.0605Z" fill="black"/>
<path d="M12.1352 101.968H8.22803V105.875H12.1352V101.968Z" fill="black"/>
<path d="M16.0424 101.968H12.1353V105.875H16.0424V101.968Z" fill="black"/>
<path d="M19.9497 101.968H16.0425V105.875H19.9497V101.968Z" fill="black"/>
<path d="M23.8569 101.968H19.9497V105.875H23.8569V101.968Z" fill="black"/>
<path d="M27.7641 101.968H23.8569V105.875H27.7641V101.968Z" fill="black"/>
<path d="M35.5786 101.968H31.6714V105.875H35.5786V101.968Z" fill="black"/>
<path d="M39.4853 101.968H35.5781V105.875H39.4853V101.968Z" fill="black"/>
<path d="M59.0214 101.968H55.1143V105.875H59.0214V101.968Z" fill="black"/>
<path d="M66.8359 101.968H62.9287V105.875H66.8359V101.968Z" fill="black"/>
<path d="M70.7431 101.968H66.8359V105.875H70.7431V101.968Z" fill="black"/>
<path d="M98.0932 101.968H94.186V105.875H98.0932V101.968Z" fill="black"/>
<path d="M102 101.968H98.0933V105.875H102V101.968Z" fill="black"/>
<path d="M105.908 101.968H102V105.875H105.908V101.968Z" fill="black"/>
<path d="M109.815 101.968H105.908V105.875H109.815V101.968Z" fill="black"/>
<path d="M113.722 101.968H109.815V105.875H113.722V101.968Z" fill="black"/>
<path d="M117.629 101.968H113.722V105.875H117.629V101.968Z" fill="black"/>
<path d="M121.537 101.968H117.629V105.875H121.537V101.968Z" fill="black"/>
<path d="M137.165 101.968H133.258V105.875H137.165V101.968Z" fill="black"/>
<path d="M43.3925 105.876H39.4854V109.783H43.3925V105.876Z" fill="black"/>
<path d="M55.1142 105.876H51.207V109.783H55.1142V105.876Z" fill="black"/>
<path d="M62.9287 105.876H59.0215V109.783H62.9287V105.876Z" fill="black"/>
<path d="M66.8359 105.876H62.9287V109.783H66.8359V105.876Z" fill="black"/>
<path d="M70.7431 105.876H66.8359V109.783H70.7431V105.876Z" fill="black"/>
<path d="M74.6504 105.876H70.7432V109.783H74.6504V105.876Z" fill="black"/>
<path d="M86.372 105.876H82.4648V109.783H86.372V105.876Z" fill="black"/>
<path d="M90.2788 105.876H86.3716V109.783H90.2788V105.876Z" fill="black"/>
<path d="M94.186 105.876H90.2788V109.783H94.186V105.876Z" fill="black"/>
<path d="M105.908 105.876H102V109.783H105.908V105.876Z" fill="black"/>
<path d="M121.537 105.876H117.629V109.783H121.537V105.876Z" fill="black"/>
<path d="M125.444 105.876H121.537V109.783H125.444V105.876Z" fill="black"/>
<path d="M43.3925 109.782H39.4854V113.689H43.3925V109.782Z" fill="black"/>
<path d="M47.2998 109.782H43.3926V113.689H47.2998V109.782Z" fill="black"/>
<path d="M62.9287 109.782H59.0215V113.689H62.9287V109.782Z" fill="black"/>
<path d="M70.7431 109.782H66.8359V113.689H70.7431V109.782Z" fill="black"/>
<path d="M74.6504 109.782H70.7432V113.689H74.6504V109.782Z" fill="black"/>
<path d="M78.5576 109.782H74.6504V113.689H78.5576V109.782Z" fill="black"/>
<path d="M90.2793 109.782H86.3721V113.689H90.2793V109.782Z" fill="black"/>
<path d="M102 109.782H98.0933V113.689H102V109.782Z" fill="black"/>
<path d="M105.908 109.782H102V113.689H105.908V109.782Z" fill="black"/>
<path d="M113.722 109.782H109.815V113.689H113.722V109.782Z" fill="black"/>
<path d="M121.537 109.782H117.629V113.689H121.537V109.782Z" fill="black"/>
<path d="M125.444 109.782H121.537V113.689H125.444V109.782Z" fill="black"/>
<path d="M129.351 109.782H125.444V113.689H129.351V109.782Z" fill="black"/>
<path d="M51.207 113.689H47.2998V117.597H51.207V113.689Z" fill="black"/>
<path d="M62.9287 113.689H59.0215V117.597H62.9287V113.689Z" fill="black"/>
<path d="M70.7431 113.689H66.8359V117.597H70.7431V113.689Z" fill="black"/>
<path d="M74.6504 113.689H70.7432V117.597H74.6504V113.689Z" fill="black"/>
<path d="M94.186 113.689H90.2788V117.597H94.186V113.689Z" fill="black"/>
<path d="M98.0932 113.689H94.186V117.597H98.0932V113.689Z" fill="black"/>
<path d="M102 113.689H98.0933V117.597H102V113.689Z" fill="black"/>
<path d="M105.908 113.689H102V117.597H105.908V113.689Z" fill="black"/>
<path d="M121.537 113.689H117.629V117.597H121.537V113.689Z" fill="black"/>
<path d="M125.444 113.689H121.537V117.597H125.444V113.689Z" fill="black"/>
<path d="M129.351 113.689H125.444V117.597H129.351V113.689Z" fill="black"/>
<path d="M133.258 113.689H129.351V117.597H133.258V113.689Z" fill="black"/>
<path d="M43.3925 117.597H39.4854V121.504H43.3925V117.597Z" fill="black"/>
<path d="M47.2998 117.597H43.3926V121.504H47.2998V117.597Z" fill="black"/>
<path d="M59.0214 117.597H55.1143V121.504H59.0214V117.597Z" fill="black"/>
<path d="M62.9287 117.597H59.0215V121.504H62.9287V117.597Z" fill="black"/>
<path d="M66.8359 117.597H62.9287V121.504H66.8359V117.597Z" fill="black"/>
<path d="M90.2788 117.597H86.3716V121.504H90.2788V117.597Z" fill="black"/>
<path d="M94.186 117.597H90.2788V121.504H94.186V117.597Z" fill="black"/>
<path d="M98.0932 117.597H94.186V121.504H98.0932V117.597Z" fill="black"/>
<path d="M102 117.597H98.0933V121.504H102V117.597Z" fill="black"/>
<path d="M105.908 117.597H102V121.504H105.908V117.597Z" fill="black"/>
<path d="M109.815 117.597H105.908V121.504H109.815V117.597Z" fill="black"/>
<path d="M113.722 117.597H109.815V121.504H113.722V117.597Z" fill="black"/>
<path d="M117.629 117.597H113.722V121.504H117.629V117.597Z" fill="black"/>
<path d="M121.537 117.597H117.629V121.504H121.537V117.597Z" fill="black"/>
<path d="M125.444 117.597H121.537V121.504H125.444V117.597Z" fill="black"/>
<path d="M133.258 117.597H129.351V121.504H133.258V117.597Z" fill="black"/>
<path d="M43.3925 121.503H39.4854V125.41H43.3925V121.503Z" fill="black"/>
<path d="M47.2998 121.503H43.3926V125.41H47.2998V121.503Z" fill="black"/>
<path d="M55.1142 121.503H51.207V125.41H55.1142V121.503Z" fill="black"/>
<path d="M59.0214 121.503H55.1143V125.41H59.0214V121.503Z" fill="black"/>
<path d="M62.9287 121.503H59.0215V125.41H62.9287V121.503Z" fill="black"/>
<path d="M66.8359 121.503H62.9287V125.41H66.8359V121.503Z" fill="black"/>
<path d="M70.7431 121.503H66.8359V125.41H70.7431V121.503Z" fill="black"/>
<path d="M74.6504 121.503H70.7432V125.41H74.6504V121.503Z" fill="black"/>
<path d="M82.4648 121.503H78.5576V125.41H82.4648V121.503Z" fill="black"/>
<path d="M90.2793 121.503H86.3721V125.41H90.2793V121.503Z" fill="black"/>
<path d="M94.186 121.503H90.2788V125.41H94.186V121.503Z" fill="black"/>
<path d="M98.0932 121.503H94.186V125.41H98.0932V121.503Z" fill="black"/>
<path d="M102 121.503H98.0933V125.41H102V121.503Z" fill="black"/>
<path d="M109.815 121.503H105.908V125.41H109.815V121.503Z" fill="black"/>
<path d="M117.629 121.503H113.722V125.41H117.629V121.503Z" fill="black"/>
<path d="M133.258 121.503H129.351V125.41H133.258V121.503Z" fill="black"/>
<path d="M47.2998 125.411H43.3926V129.318H47.2998V125.411Z" fill="black"/>
<path d="M55.1142 125.411H51.207V129.318H55.1142V125.411Z" fill="black"/>
<path d="M59.0214 125.411H55.1143V129.318H59.0214V125.411Z" fill="black"/>
<path d="M66.8359 125.411H62.9287V129.318H66.8359V125.411Z" fill="black"/>
<path d="M70.7431 125.411H66.8359V129.318H70.7431V125.411Z" fill="black"/>
<path d="M78.5576 125.411H74.6504V129.318H78.5576V125.411Z" fill="black"/>
<path d="M82.4648 125.411H78.5576V129.318H82.4648V125.411Z" fill="black"/>
<path d="M98.0932 125.411H94.186V129.318H98.0932V125.411Z" fill="black"/>
<path d="M121.537 125.411H117.629V129.318H121.537V125.411Z" fill="black"/>
<path d="M133.258 125.411H129.351V129.318H133.258V125.411Z" fill="black"/>
<path d="M137.165 125.411H133.258V129.318H137.165V125.411Z" fill="black"/>
<path d="M59.0214 129.318H55.1143V133.226H59.0214V129.318Z" fill="black"/>
<path d="M62.9287 129.318H59.0215V133.226H62.9287V129.318Z" fill="black"/>
<path d="M66.8359 129.318H62.9287V133.226H66.8359V129.318Z" fill="black"/>
<path d="M74.6504 129.318H70.7432V133.226H74.6504V129.318Z" fill="black"/>
<path d="M86.372 129.318H82.4648V133.226H86.372V129.318Z" fill="black"/>
<path d="M90.2793 129.318H86.3721V133.226H90.2793V129.318Z" fill="black"/>
<path d="M94.186 129.318H90.2788V133.226H94.186V129.318Z" fill="black"/>
<path d="M102 129.318H98.0933V133.226H102V129.318Z" fill="black"/>
<path d="M109.815 129.318H105.908V133.226H109.815V129.318Z" fill="black"/>
<path d="M113.722 129.318H109.815V133.226H113.722V129.318Z" fill="black"/>
<path d="M125.444 129.318H121.537V133.226H125.444V129.318Z" fill="black"/>
<path d="M129.351 129.318H125.444V133.226H129.351V129.318Z" fill="black"/>
<path d="M133.258 129.318H129.351V133.226H133.258V129.318Z" fill="black"/>
<path d="M137.165 129.318H133.258V133.226H137.165V129.318Z" fill="black"/>
<path d="M47.2998 133.227H43.3926V137.134H47.2998V133.227Z" fill="black"/>
<path d="M51.207 133.227H47.2998V137.134H51.207V133.227Z" fill="black"/>
<path d="M55.1142 133.227H51.207V137.134H55.1142V133.227Z" fill="black"/>
<path d="M59.0214 133.227H55.1143V137.134H59.0214V133.227Z" fill="black"/>
<path d="M62.9287 133.227H59.0215V137.134H62.9287V133.227Z" fill="black"/>
<path d="M82.4648 133.227H78.5576V137.134H82.4648V133.227Z" fill="black"/>
<path d="M90.2788 133.227H86.3716V137.134H90.2788V133.227Z" fill="black"/>
<path d="M94.186 133.227H90.2788V137.134H94.186V133.227Z" fill="black"/>
<path d="M102 133.227H98.0933V137.134H102V133.227Z" fill="black"/>
<path d="M105.908 133.227H102V137.134H105.908V133.227Z" fill="black"/>
<path d="M121.537 133.227H117.629V137.134H121.537V133.227Z" fill="black"/>
<path d="M31.4758 8.19531H12.3306H8.22803V12.2979V31.4431V35.5456H12.3306H31.4758H35.5784V31.4431V12.2979V8.19531H31.4758ZM31.4758 31.4431H12.3306V12.2979H31.4758V31.4431Z" fill="black"/>
<path d="M133.063 8.19531H113.917H109.815V12.2979V31.4431V35.5456H113.917H133.063H137.165V31.4431V12.2979V8.19531H133.063ZM133.063 31.4431H113.917V12.2979H133.063V31.4431Z" fill="black"/>
<path d="M31.4758 109.782H12.3306H8.22803V113.885V133.03V137.133H12.3306H31.4758H35.5784V133.03V113.885V109.782H31.4758ZM31.4758 133.03H12.3306V113.885H31.4758V133.03Z" fill="black"/>
<path d="M27.7641 16.0098H16.0425V27.7313H27.7641V16.0098Z" fill="black"/>
<path d="M129.351 16.0098H117.629V27.7313H129.351V16.0098Z" fill="black"/>
<path d="M27.7641 117.597H16.0425V129.318H27.7641V117.597Z" fill="black"/>
<path d="M54.9371 58.0654C49.1252 58.0654 44.3877 62.7998 44.3877 68.6148C44.3877 74.4298 49.1221 79.1612 54.9371 79.1612C60.7521 79.1612 65.4865 74.4298 65.4865 68.6148C65.4835 62.7998 60.7491 58.0654 54.9371 58.0654ZM54.9371 60.0679C59.6685 60.0679 63.481 63.8835 63.481 68.6118C63.481 73.3431 59.6685 77.1557 54.9371 77.1557C50.2057 77.1557 46.3932 73.3431 46.3932 68.6118C46.3932 63.8835 50.2057 60.0679 54.9371 60.0679Z" fill="#005792"/>
<path d="M65.5049 77.967V59.5605H72.3394L72.5348 60.9586C73.2338 60.4915 74.1526 60.0794 75.2912 59.7162C76.4572 59.3529 77.6996 59.1729 79.0183 59.1729C81.3229 59.1729 83.0048 59.7437 84.0671 60.8822C85.1294 62.0208 85.6605 63.7821 85.6605 66.1631V77.9701H78.3589V66.8987C78.3589 66.0715 78.1788 65.4762 77.8156 65.113C77.4523 64.7498 76.8174 64.5697 75.9139 64.5697C75.3705 64.5697 74.7997 64.6979 74.2045 64.9573C73.6337 65.2168 73.1697 65.5281 72.8064 65.8883V77.967H65.5049Z" fill="#005792"/>
<path d="M54.29 62.6982V68.5804H50.2852V70.5859H56.2925V62.6982H54.29Z" fill="#005792"/>
<path d="M70.8404 70.9676C70.9289 71.0439 71.0418 71.0683 71.1792 71.0439C71.3166 71.0195 71.4509 70.9645 71.5821 70.8852C71.7134 70.8027 71.8324 70.6959 71.9393 70.5647C72.0461 70.4334 72.1163 70.2991 72.156 70.1617C72.1926 70.0366 72.2079 69.8931 72.2018 69.7283C72.1957 69.5665 72.1682 69.4169 72.1163 69.2857C72.0675 69.1544 71.9942 69.0476 71.8996 68.9651C71.805 68.8827 71.689 68.8553 71.5516 68.8797C71.4142 68.9041 71.2525 68.9896 71.0632 69.133C70.874 69.2765 70.7183 69.4535 70.5931 69.6581C70.468 69.8656 70.41 70.0854 70.4252 70.3143C70.4405 70.5524 70.5779 70.7661 70.8404 70.9676Z" fill="#FFB740"/>
<path d="M83.2763 76.6598C83.2274 76.6231 83.1572 76.6262 83.0687 76.6689C82.9802 76.7116 82.8856 76.7971 82.7879 76.9223C82.7116 77.0108 82.5986 77.1573 82.4491 77.3649C82.2995 77.5724 82.1133 77.8044 81.8935 78.0608C81.6737 78.3173 81.4295 78.5828 81.1609 78.8606C80.8923 79.1353 80.6115 79.3887 80.3245 79.6207C80.0376 79.8527 79.7415 80.0419 79.4424 80.1945C79.1432 80.3441 78.8471 80.4204 78.5602 80.4204C78.4961 80.4204 78.4564 80.4174 78.4381 80.4113C78.4198 80.4052 78.4106 80.3991 78.4106 80.3929C78.4106 80.3868 78.4045 80.3807 78.3923 80.3746C78.3801 80.3685 78.3496 80.3594 78.2977 80.3472C78.5358 80.048 78.7616 79.7214 78.9753 79.3704C79.189 79.0193 79.3752 78.6622 79.54 78.2989C79.7018 77.9357 79.83 77.5786 79.9247 77.2275C80.0193 76.8765 80.0712 76.5438 80.0834 76.2324C80.0956 75.9455 80.0895 75.6524 80.0651 75.3594C80.0406 75.0664 79.9765 74.7977 79.8758 74.5596C79.7751 74.3215 79.6347 74.1323 79.4546 73.9858C79.2714 73.8423 79.0394 73.769 78.7494 73.769C78.5358 73.769 78.3129 73.8148 78.084 73.9095C77.852 74.0041 77.6261 74.1262 77.4063 74.2758C77.1866 74.4253 76.9698 74.5963 76.7592 74.7825C76.5455 74.9717 76.3532 75.164 76.1762 75.3655C76.1762 75.3167 76.1792 75.2678 76.1853 75.2251C76.1915 75.1823 76.2006 75.1274 76.2128 75.0664C76.2739 74.6543 76.2647 74.3521 76.1853 74.1659C76.1029 73.9766 75.8954 73.8728 75.5565 73.8454C75.4192 73.8331 75.2818 73.8454 75.1444 73.882C75.0193 73.9064 74.8789 73.9552 74.7232 74.0224C74.5675 74.0926 74.4118 74.1872 74.2623 74.3124C74.4759 74.5261 74.5675 74.7794 74.5431 75.0725C74.5187 75.3655 74.4424 75.7593 74.3172 76.2477C74.2867 76.3789 74.2562 76.5132 74.2256 76.6506C74.186 76.6842 74.1493 76.7269 74.1127 76.7727C73.9509 77.0108 73.7006 77.3282 73.3618 77.722C73.023 78.1158 72.6567 78.5035 72.2629 78.8881C71.8691 79.2696 71.4814 79.5993 71.0968 79.874C70.7153 80.1487 70.3978 80.2861 70.1475 80.2861C70.059 80.2861 69.9796 80.2586 69.9033 80.2006C69.827 80.1457 69.7598 80.0419 69.6957 79.8893C69.6316 79.7641 69.6133 79.584 69.6408 79.3459C69.6652 79.1079 69.7141 78.8545 69.7812 78.5859C69.8484 78.3173 69.9277 78.0425 70.0163 77.7586C70.1048 77.4778 70.178 77.2245 70.2421 76.9986C70.3032 76.7727 70.3978 76.4827 70.523 76.1256C70.6481 75.7684 70.7672 75.4204 70.8801 75.0816C70.993 74.7428 71.0877 74.4497 71.1609 74.1994C71.2373 73.9491 71.2678 73.8179 71.2556 73.8057C71.2311 73.7935 71.1396 73.7904 70.9839 73.7965C70.8282 73.8026 70.6542 73.8209 70.468 73.8515C70.2788 73.882 70.0987 73.9247 69.9247 73.9736C69.7476 74.0224 69.6316 74.0865 69.5675 74.1628C69.3661 74.4131 69.189 74.7947 69.0333 75.3075C68.8777 75.8203 68.7495 76.3637 68.6487 76.9314C68.6335 77.0108 68.6213 77.0932 68.6091 77.1726C68.5785 77.2184 68.5449 77.2641 68.5083 77.316C68.3526 77.5419 68.1603 77.7953 67.9345 78.0761C67.7086 78.3569 67.4644 78.6469 67.2019 78.94C66.9393 79.233 66.6738 79.5047 66.4021 79.7489C66.1335 79.9931 65.871 80.1945 65.6146 80.3502C65.3581 80.5059 65.1231 80.5853 64.9094 80.5853C64.6225 80.5853 64.4455 80.5364 64.3844 80.4357C64.3203 80.3349 64.2776 80.2037 64.2531 80.0419C64.2287 79.7916 64.302 79.5108 64.479 79.1964C64.653 78.885 64.8301 78.6011 65.0041 78.3508C65.291 77.951 65.5352 77.5816 65.7367 77.2428C65.9381 76.904 66.0175 76.5804 65.9809 76.266C65.9686 76.1164 65.9412 75.9485 65.8954 75.7684C65.8527 75.5883 65.7855 75.4174 65.697 75.2617C65.6085 75.106 65.4955 74.9748 65.3581 74.8679C65.2208 74.7611 65.0437 74.7092 64.8331 74.7092C64.6561 74.7092 64.5279 74.7214 64.4485 74.7458C64.3661 74.7703 64.2257 74.7825 64.0273 74.7825C63.8899 74.7825 63.7892 74.7672 63.7281 74.7367C63.664 74.7062 63.6152 74.6787 63.5785 74.6512C63.7159 74.4497 63.8105 74.2269 63.8594 73.9736C63.9082 73.7233 63.9204 73.5157 63.896 73.3539C63.8716 73.1158 63.7861 72.8838 63.6426 72.6579C63.4992 72.4321 63.2519 72.3191 62.9009 72.3191C62.7116 72.3191 62.5193 72.4076 62.3179 72.5816C62.1164 72.7587 61.9363 72.9662 61.7745 73.2104C61.6127 73.4546 61.4815 73.708 61.3807 73.9705C61.28 74.233 61.2434 74.4467 61.2678 74.6085C61.2922 74.7977 61.3289 74.9198 61.3807 74.9748C61.4296 75.0297 61.5242 75.1213 61.6616 75.2464C61.5853 75.3838 61.4662 75.6066 61.3044 75.9119C61.1427 76.2202 60.9626 76.5651 60.7702 76.9558C60.6634 77.1726 60.5505 77.3954 60.4375 77.6243C60.3887 77.6823 60.3429 77.7403 60.291 77.8014C60.0407 78.1005 59.769 78.4088 59.4729 78.7232C59.1799 79.0376 58.8869 79.3246 58.5999 79.5871C58.313 79.8496 58.0322 80.0602 57.7635 80.2159C57.4949 80.3716 57.266 80.4387 57.0767 80.4143C56.8386 80.4021 56.6372 80.3258 56.4754 80.1884C56.338 80.0633 56.222 79.8588 56.1274 79.5779C56.0328 79.2971 56.0236 78.885 56.0999 78.3478C56.4265 77.5969 56.7196 76.8887 56.9821 76.2263C57.2446 75.5639 57.4705 74.9748 57.6598 74.462C57.8734 73.8728 58.0596 73.3295 58.2245 72.8289C58.3008 72.6152 58.3588 72.4137 58.4015 72.2184C58.4442 72.023 58.4931 71.8277 58.5419 71.6262C58.6427 71.6262 58.7403 71.6231 58.8319 71.617C58.9265 71.6109 59.009 71.6079 59.0853 71.6079C59.4851 71.6079 59.8362 71.6201 60.1384 71.6445C60.4375 71.6689 60.7 71.6933 60.9168 71.7208C61.1365 71.7452 61.3227 71.7758 61.4815 71.8154C61.6372 71.8521 61.7776 71.8796 61.9027 71.8918C62.0279 71.9162 62.1408 71.8918 62.2415 71.8154C62.3423 71.7391 62.4125 71.6506 62.4583 71.5438C62.501 71.4369 62.5193 71.3332 62.5132 71.2324C62.5071 71.1317 62.4583 71.0706 62.3728 71.0432C62.2843 71.0187 62.153 70.9699 61.979 70.9028C61.802 70.8356 61.5731 70.7654 61.2831 70.6952C60.9961 70.628 60.6481 70.5639 60.2391 70.5059C59.8331 70.451 59.3661 70.4205 58.8411 70.4205C58.9662 69.7825 59.0364 69.2544 59.0486 68.8423C59.0609 68.4302 59.0364 68.1738 58.9723 68.0731C58.9082 67.9968 58.8105 67.951 58.6732 67.9327C58.5358 67.9144 58.3924 67.9144 58.2397 67.9327C58.0871 67.951 57.9497 67.9815 57.8185 68.0273C57.6872 68.07 57.6018 68.125 57.5651 68.186C57.44 68.3631 57.2996 68.6714 57.1439 69.117C56.9882 69.5627 56.8264 70.0847 56.6646 70.686C56.451 70.7227 56.2342 70.7562 56.0175 70.7807C55.7977 70.8051 55.5688 70.8234 55.3307 70.8356C55.0041 70.8478 54.7049 70.8448 54.4302 70.8264C54.1555 70.8081 53.8991 70.7868 53.661 70.7593C53.5847 70.7593 53.5023 70.7929 53.4076 70.8631C53.313 70.9333 53.2367 71.0126 53.1726 71.1073C53.1115 71.2019 53.0719 71.2965 53.0596 71.3881C53.0474 71.4827 53.0902 71.5529 53.1909 71.6048C53.3679 71.6933 53.6335 71.7819 53.9907 71.8765C54.3478 71.9711 54.7263 72.0169 55.1262 72.0169C55.3002 72.0169 55.4955 72.0047 55.7092 71.9803C55.9229 71.9559 56.1335 71.9314 56.3472 71.904C56.1701 72.6305 56.0053 73.3844 55.8496 74.1689C55.694 74.9504 55.5505 75.683 55.4284 76.3667C55.3032 77.0505 55.2025 77.6518 55.1292 78.1707C55.0529 78.6897 55.0102 79.0499 54.998 79.2513C54.9736 79.4894 54.9919 79.7489 55.0529 80.0297C55.114 80.3105 55.2239 80.573 55.3826 80.8081C55.5383 81.0462 55.755 81.2476 56.0297 81.4094C56.3044 81.5712 56.6494 81.6536 57.0615 81.6536C57.3484 81.6536 57.7055 81.4979 58.1329 81.1835C58.4442 80.9546 58.7648 80.6768 59.0914 80.3563C58.9662 80.6097 58.8838 80.7715 58.8472 80.8447C58.7709 80.9943 58.7464 81.1194 58.7709 81.2202C58.7953 81.3209 58.8502 81.385 58.9296 81.4186C59.012 81.4491 59.1066 81.443 59.2104 81.4003C59.3173 81.3575 59.4149 81.266 59.5004 81.1286C59.537 81.0798 59.6347 80.9241 59.7904 80.6677C59.9461 80.4113 60.1384 80.0969 60.3643 79.7275C60.5902 79.3582 60.8313 78.9613 61.0877 78.534C61.3441 78.1097 61.5883 77.7007 61.8203 77.313C62.0523 76.9253 62.2568 76.5865 62.4308 76.2996C62.6048 76.0126 62.7177 75.8234 62.7696 75.7348C62.8704 75.7593 62.9772 75.7989 63.0901 75.8478C63.2031 75.8966 63.3404 75.9241 63.5022 75.9241C63.6152 75.9241 63.7006 75.921 63.7556 75.9149C63.8105 75.9088 63.8563 75.9058 63.8868 75.9058C63.9174 75.9058 63.9479 75.9027 63.9815 75.8966C64.012 75.8905 64.0669 75.8875 64.1402 75.8875C64.2531 75.8875 64.3356 75.9302 64.3844 76.0187C64.4332 76.1073 64.4607 76.208 64.4607 76.3179C64.4607 76.4949 64.3936 76.7086 64.2623 76.965C64.131 77.2214 63.9571 77.5328 63.7464 77.896C63.6579 78.0731 63.5602 78.2501 63.4564 78.4302C63.3496 78.6133 63.2489 78.7934 63.1573 78.9735C63.0627 79.1567 62.9803 79.3307 62.9131 79.4986C62.8429 79.6665 62.8032 79.8282 62.791 79.9778C62.7788 80.1671 62.8002 80.3685 62.8582 80.5883C62.9131 80.8081 63.0077 81.0096 63.139 81.1896C63.2702 81.3697 63.4412 81.5254 63.6549 81.6506C63.8685 81.7757 64.1371 81.8398 64.4638 81.8398C64.7782 81.8398 65.1048 81.7452 65.4497 81.559C65.7947 81.3697 66.1396 81.1317 66.4815 80.8356C66.8264 80.5425 67.153 80.2159 67.4674 79.8588C67.7818 79.5016 68.0657 79.1536 68.3221 78.8148C68.3618 78.7629 68.4015 78.708 68.4412 78.6561C68.4076 79.172 68.4076 79.584 68.4442 79.8832C68.4564 80.0969 68.5205 80.2983 68.6335 80.4937C68.7464 80.689 68.8868 80.8569 69.0547 81.0004C69.2226 81.1439 69.4119 81.2568 69.6194 81.3392C69.827 81.4216 70.0346 81.4552 70.2482 81.443C70.5108 81.4308 70.8526 81.266 71.2708 80.9546C71.689 80.6402 72.1194 80.2617 72.559 79.8191C72.9985 79.3734 73.4106 78.9125 73.7983 78.4302C73.8044 78.421 73.8105 78.4149 73.8166 78.4058C73.7647 78.6317 73.7128 78.8484 73.667 79.059C73.5419 79.5596 73.4167 80.0602 73.2916 80.5608C73.1542 81.0859 72.9924 81.7391 72.8032 82.5144C72.6292 83.1768 72.4186 84.004 72.1744 84.9931C71.9302 85.9821 71.6341 87.1481 71.283 88.4882C71.3319 88.6255 71.396 88.7415 71.4723 88.8361C71.5486 88.9308 71.6219 89.0071 71.6982 89.0712C71.7867 89.1475 71.8752 89.2024 71.9607 89.2391C72.211 89.3398 72.4338 89.3642 72.6261 89.3154C72.8215 89.2665 72.9558 89.0712 73.0291 88.7324C73.2427 87.493 73.4442 86.388 73.6396 85.4173C73.8349 84.4467 73.9998 83.6225 74.1371 82.9479C74.2989 82.1603 74.4576 81.4644 74.6072 80.863C74.6194 80.802 74.6286 80.7501 74.6347 80.7135C74.6408 80.6768 74.6499 80.631 74.6621 80.5822C74.6988 80.7196 74.7507 80.86 74.8117 81.0034C74.8728 81.1469 74.9552 81.2782 75.0559 81.3972C75.1567 81.5163 75.2849 81.6109 75.4405 81.678C75.5962 81.7452 75.7824 81.7818 75.9961 81.7818C76.222 81.7818 76.454 81.736 76.6921 81.6414C76.9302 81.5468 77.1621 81.4125 77.388 81.2385C77.4765 81.2751 77.5498 81.3117 77.6139 81.3423C77.675 81.3728 77.7421 81.4033 77.8123 81.4369C77.8795 81.4674 77.9649 81.4888 78.0657 81.5041C78.1664 81.5163 78.2977 81.5224 78.4595 81.5224C78.7983 81.5224 79.1463 81.4308 79.5034 81.2507C79.8605 81.0706 80.2085 80.8417 80.5474 80.5639C80.8862 80.2892 81.2067 79.9809 81.515 79.642C81.8202 79.3032 82.095 78.9796 82.3331 78.6652C82.5712 78.3539 82.7726 78.07 82.9344 77.8197C83.0962 77.5694 83.203 77.3862 83.2549 77.2764C83.3312 77.1146 83.3679 76.9803 83.3679 76.8734C83.3526 76.7696 83.3282 76.6964 83.2763 76.6598ZM77.559 79.0346C77.3514 79.3154 77.156 79.5688 76.9668 79.7947C76.6676 79.6329 76.4082 79.4772 76.1976 79.3337C75.9839 79.1903 75.8099 79.117 75.6725 79.117C75.5474 79.117 75.4222 79.1353 75.2971 79.172C75.1719 79.2086 75.059 79.2666 74.9582 79.3398C75.0468 78.9522 75.1231 78.6164 75.1933 78.3356C75.2604 78.0547 75.3276 77.8075 75.3917 77.5938C75.8679 76.8673 76.3349 76.2751 76.7897 75.8173C77.2476 75.3594 77.6689 75.1305 78.0565 75.1305C78.319 75.1305 78.5083 75.2373 78.6212 75.451C78.7342 75.6646 78.7769 75.9577 78.7525 76.3331C78.7403 76.6201 78.6731 76.9223 78.5541 77.2336C78.435 77.548 78.2916 77.8533 78.1206 78.1555C77.9527 78.4607 77.7635 78.7538 77.559 79.0346Z" fill="#FFB740"/>
</g>
<defs>
<clipPath id="clip0_831_2">
<rect x="0.413574" y="0.381836" width="144.566" height="144.566" rx="4.75938" fill="white"/>
</clipPath>
</defs>
</svg>
