<svg width="41" height="41" viewBox="0 0 41 41" fill="none" xmlns="http://www.w3.org/2000/svg">
<path d="M0.345703 4.73123C0.345703 2.31025 2.3083 0.347656 4.72928 0.347656H35.9621C38.3831 0.347656 40.3457 2.31025 40.3457 4.73123V35.9641C40.3457 38.3851 38.3831 40.3477 35.9621 40.3477H4.72928C2.3083 40.3477 0.345703 38.3851 0.345703 35.9641V4.73123Z" fill="#1184D2"/>
<mask id="mask0_788_33" style="mask-type:alpha" maskUnits="userSpaceOnUse" x="6" y="6" width="28" height="28">
<rect x="6.83301" y="6.83496" width="27.027" height="27.027" fill="#D9D9D9"/>
</mask>
<g mask="url(#mask0_788_33)">
<path d="M16.5174 30.9618C15.0534 30.9618 13.8241 30.4645 12.8293 29.4697C11.8346 28.475 11.3372 27.255 11.3372 25.8098V16.6037C10.6615 16.3034 10.1172 15.8671 9.70433 15.2946C9.29142 14.7222 9.08496 14.0606 9.08496 13.3098C9.08496 12.3151 9.43688 11.4705 10.1407 10.776C10.8445 10.0816 11.6844 9.73438 12.6604 9.73438C13.6552 9.73438 14.4998 10.0816 15.1942 10.776C15.8886 11.4705 16.2359 12.3151 16.2359 13.3098C16.2359 14.0418 16.0294 14.6987 15.6165 15.2805C15.2036 15.8624 14.6593 16.3034 13.9836 16.6037V25.8098C13.9836 26.5043 14.2229 27.0955 14.7015 27.5835C15.1801 28.0715 15.7948 28.3155 16.5455 28.3155C17.2588 28.3155 17.85 28.0715 18.3192 27.5835C18.7884 27.0955 19.023 26.5043 19.023 25.8098V14.8864C19.023 13.4224 19.5157 12.1978 20.5011 11.2124C21.4864 10.2271 22.7205 9.73438 24.2032 9.73438C25.6672 9.73438 26.8965 10.2271 27.8913 11.2124C28.886 12.1978 29.3834 13.4224 29.3834 14.8864V24.0925C30.0403 24.3928 30.5799 24.8292 31.0022 25.4016C31.4245 25.9741 31.6356 26.6357 31.6356 27.3864C31.6356 28.3624 31.2884 29.2023 30.594 29.9061C29.8995 30.6099 29.0455 30.9618 28.032 30.9618C27.0561 30.9618 26.2162 30.6052 25.5123 29.892C24.8085 29.1788 24.4566 28.3436 24.4566 27.3864C24.4566 26.6544 24.663 25.9975 25.076 25.4157C25.4889 24.8338 26.0332 24.3928 26.7088 24.0925V14.8864C26.7088 14.1732 26.4695 13.5773 25.9909 13.0987C25.5123 12.6201 24.907 12.3808 24.1751 12.3808C23.4618 12.3808 22.8659 12.6201 22.3873 13.0987C21.9087 13.5773 21.6694 14.1732 21.6694 14.8864V25.8098C21.6694 27.255 21.1767 28.475 20.1914 29.4697C19.206 30.4645 17.9814 30.9618 16.5174 30.9618ZM12.6604 14.5486C13.017 14.5486 13.3173 14.4266 13.5613 14.1826C13.8053 13.9386 13.9273 13.6477 13.9273 13.3098C13.9273 12.9532 13.8053 12.6576 13.5613 12.423C13.3173 12.1884 13.017 12.0711 12.6604 12.0711C12.3226 12.0711 12.0317 12.1884 11.7877 12.423C11.5437 12.6576 11.4217 12.9532 11.4217 13.3098C11.4217 13.6477 11.5437 13.9386 11.7877 14.1826C12.0317 14.4266 12.3226 14.5486 12.6604 14.5486ZM28.0602 28.6251C28.398 28.6251 28.6842 28.5031 28.9189 28.2591C29.1535 28.0152 29.2708 27.7242 29.2708 27.3864C29.2708 27.0298 29.1535 26.7342 28.9189 26.4996C28.6842 26.265 28.3886 26.1477 28.032 26.1477C27.713 26.1477 27.4267 26.265 27.1734 26.4996C26.92 26.7342 26.7933 27.0298 26.7933 27.3864C26.7933 27.7242 26.92 28.0152 27.1734 28.2591C27.4267 28.5031 27.7223 28.6251 28.0602 28.6251Z" fill="#FFB740"/>
</g>
</svg>
