<svg width="16" height="16" viewBox="0 0 16 16" fill="none" xmlns="http://www.w3.org/2000/svg">
<path d="M8.00008 1.33331C5.05341 1.33331 2.66675 1.66665 2.66675 3.99998V10.6666C2.66675 11.2533 2.92675 11.78 3.33341 12.1466V13.3333C3.33341 13.7 3.63341 14 4.00008 14H4.66675C5.03341 14 5.33341 13.7 5.33341 13.3333V12.6666H10.6667V13.3333C10.6667 13.7 10.9667 14 11.3334 14H12.0001C12.3667 14 12.6667 13.7 12.6667 13.3333V12.1466C13.0734 11.78 13.3334 11.2533 13.3334 10.6666V3.99998C13.3334 1.66665 10.9467 1.33331 8.00008 1.33331ZM11.7734 3.32665H4.22675C4.59341 2.97331 5.54008 2.66665 8.00008 2.66665C10.4601 2.66665 11.4067 2.97331 11.7734 3.32665ZM12.0001 4.65998V6.66665H4.00008V4.65998H12.0001ZM11.7734 11.1533L11.5801 11.3333H4.42008L4.22675 11.1533C4.14008 11.08 4.00008 10.9133 4.00008 10.6666V7.99998H12.0001V10.6666C12.0001 10.9133 11.8601 11.08 11.7734 11.1533Z" fill="#005792"/>
<path d="M5.66675 10.6667C6.21903 10.6667 6.66675 10.219 6.66675 9.66669C6.66675 9.1144 6.21903 8.66669 5.66675 8.66669C5.11446 8.66669 4.66675 9.1144 4.66675 9.66669C4.66675 10.219 5.11446 10.6667 5.66675 10.6667Z" fill="#005792"/>
<path d="M10.3333 10.6667C10.8855 10.6667 11.3333 10.219 11.3333 9.66669C11.3333 9.1144 10.8855 8.66669 10.3333 8.66669C9.78097 8.66669 9.33325 9.1144 9.33325 9.66669C9.33325 10.219 9.78097 10.6667 10.3333 10.6667Z" fill="#005792"/>
</svg>
