<svg width="38" height="39" viewBox="0 0 38 39" fill="none" xmlns="http://www.w3.org/2000/svg">
<g clip-path="url(#clip0_505_603)">
<path d="M36.3553 14.082V13.8518C36.3553 13.8518 36.3392 13.9998 36.3553 14.082Z" fill="#005792"/>
<path d="M36.29 13.8518V14.082C36.3384 13.9998 36.3062 13.934 36.29 13.8518Z" fill="#005792"/>
<path d="M18.9918 0.500011C15.0282 0.495795 11.1627 1.73175 7.93684 4.03467C4.71098 6.33759 2.28646 9.59208 1.00303 13.3421C0.34013 15.3247 0.00143515 17.4013 0 19.4918C0 23.248 1.11385 26.9199 3.20069 30.0431C5.28753 33.1662 8.25364 35.6005 11.7239 37.0379C15.1942 38.4753 19.0128 38.8514 22.6969 38.1186C26.3809 37.3858 29.7649 35.5771 32.421 32.921C35.077 30.265 36.8858 26.8809 37.6186 23.1969C38.3514 19.5129 37.9753 15.6942 36.5379 12.2239C35.1004 8.75366 32.6662 5.78755 29.543 3.7007C26.4199 1.61386 22.748 0.500011 18.9918 0.500011ZM16.7226 33.7644C13.327 33.2212 10.2358 31.4865 8.00305 28.8711C5.77032 26.2557 4.54202 22.9306 4.53829 19.4918C4.53181 18.7316 4.59234 17.9722 4.71917 17.2226L13.6478 20.1495C13.7491 21.0665 14.0853 21.9418 14.624 22.6907C15.1627 23.4397 15.8855 24.0369 16.7226 24.4247V33.7644ZM18.9918 14.1149C18.5088 14.1071 18.0271 14.168 17.5612 14.2958C16.6038 14.5691 15.7358 15.0911 15.0454 15.8085L10.392 14.2958L6.11683 12.9145C7.32758 10.5412 9.17079 8.54868 11.4429 7.15711C13.7149 5.76555 16.3274 5.02909 18.9918 5.02909C21.6561 5.02909 24.2686 5.76555 26.5407 7.15711C28.8128 8.54868 30.656 10.5412 31.8667 12.9145L27.5915 14.2958L22.9381 15.8085C22.2478 15.0911 21.3798 14.5691 20.4223 14.2958C19.9565 14.168 19.4748 14.1071 18.9918 14.1149ZM21.2609 33.8466V24.4247C22.0893 24.0427 22.8064 23.4556 23.3445 22.7189C23.8826 21.9823 24.2238 21.1206 24.3358 20.2153L33.2644 17.2884C33.3874 18.0164 33.4479 18.7535 33.4453 19.4918C33.4415 22.9306 32.2132 26.2557 29.9805 28.8711C27.7478 31.4865 24.6566 33.2212 21.2609 33.7644V33.8466Z" fill="#005792"/>
</g>
<defs>
<clipPath id="clip0_505_603">
<rect width="38" height="38" fill="white" transform="translate(0 0.5)"/>
</clipPath>
</defs>
</svg>
