<svg width="16" height="16" viewBox="0 0 16 16" fill="none" xmlns="http://www.w3.org/2000/svg">
<path d="M8 4.52806e-06C6.33042 -0.00177134 4.70212 0.518854 3.34327 1.48893C1.98443 2.459 0.963136 3.8299 0.422511 5.40953C0.143274 6.24468 0.000604535 7.11941 0 8C0 9.58225 0.469192 11.129 1.34824 12.4446C2.22729 13.7602 3.47672 14.7855 4.93853 15.391C6.40034 15.9965 8.00887 16.155 9.56072 15.8463C11.1126 15.5376 12.538 14.7757 13.6569 13.6569C14.7757 12.538 15.5376 11.1126 15.8463 9.56072C16.155 8.00887 15.9965 6.40034 15.391 4.93853C14.7855 3.47673 13.7602 2.2273 12.4446 1.34825C11.129 0.469196 9.58225 4.52806e-06 8 4.52806e-06ZM7.04415 14.0121C5.61379 13.7833 4.31167 13.0526 3.37116 11.9509C2.43066 10.8492 1.91326 9.44855 1.91169 8C1.90896 7.67977 1.93445 7.35992 1.98788 7.04416L5.74892 8.27706C5.7916 8.66332 5.93324 9.03202 6.16015 9.34751C6.38705 9.66299 6.69154 9.91458 7.04415 10.0779V14.0121ZM8 5.73507C7.79654 5.73178 7.59364 5.75744 7.3974 5.81126C6.9941 5.9264 6.62847 6.14626 6.33766 6.44849L4.37749 5.81126L2.57662 5.22944C3.08663 4.2297 3.86306 3.39038 4.82013 2.80421C5.77721 2.21803 6.87768 1.90781 8 1.90781C9.12231 1.90781 10.2228 2.21803 11.1799 2.80421C12.1369 3.39038 12.9134 4.2297 13.4234 5.22944L11.6225 5.81126L9.66234 6.44849C9.37153 6.14626 9.0059 5.9264 8.6026 5.81126C8.40635 5.75744 8.20346 5.73178 8 5.73507ZM8.95584 14.0468V10.0779C9.30477 9.91699 9.60686 9.66968 9.83352 9.35939C10.0602 9.0491 10.2039 8.68611 10.2511 8.30476L14.0121 7.07186C14.0639 7.3785 14.0894 7.68901 14.0883 8C14.0867 9.44855 13.5693 10.8492 12.6288 11.9509C11.6883 13.0526 10.3862 13.7833 8.95584 14.0121V14.0468Z" fill="#005792"/>
</svg>
