<svg width="24" height="24" viewBox="0 0 24 24" fill="none" xmlns="http://www.w3.org/2000/svg">
<g clip-path="url(#clip0_173_2)">
<path d="M22.1099 8.26V8.12C22.1099 8.12 22.0999 8.21 22.1099 8.26Z" fill="#005792"/>
<path d="M22.0701 8.12V8.26C22.1001 8.21 22.0801 8.17 22.0701 8.12Z" fill="#005792"/>
<path d="M11.55 6.53739e-06C9.13954 -0.00255737 6.78869 0.749096 4.82685 2.14964C2.86502 3.55018 1.39053 5.52942 0.61 7.81001C0.206853 9.01575 0.000872798 10.2786 0 11.55C0 13.8344 0.677395 16.0675 1.94653 17.9668C3.21566 19.8662 5.01952 21.3466 7.13001 22.2208C9.24049 23.095 11.5628 23.3237 13.8033 22.8781C16.0438 22.4324 18.1018 21.3324 19.7171 19.7171C21.3324 18.1018 22.4324 16.0438 22.8781 13.8033C23.3237 11.5628 23.095 9.2405 22.2208 7.13001C21.3466 5.01953 19.8662 3.21566 17.9668 1.94653C16.0674 0.677402 13.8344 6.53739e-06 11.55 6.53739e-06ZM10.17 20.23C8.10491 19.8997 6.22497 18.8447 4.86712 17.2541C3.50927 15.6635 2.76226 13.6413 2.76 11.55C2.75606 11.0877 2.79287 10.6259 2.87 10.17L8.3 11.95C8.36162 12.5077 8.56612 13.04 8.89371 13.4955C9.22131 13.951 9.66091 14.3142 10.17 14.55V20.23ZM11.55 8.28001C11.2563 8.27526 10.9633 8.3123 10.68 8.39001C10.0977 8.55624 9.56985 8.87366 9.15 9.31001L6.32 8.39001L3.72 7.55001C4.45633 6.10663 5.57729 4.89487 6.95907 4.04858C8.34084 3.20228 9.92966 2.7544 11.55 2.7544C13.1703 2.7544 14.7592 3.20228 16.1409 4.04858C17.5227 4.89487 18.6437 6.10663 19.38 7.55001L16.78 8.39001L13.95 9.31001C13.5301 8.87366 13.0023 8.55624 12.42 8.39001C12.1367 8.3123 11.8437 8.27526 11.55 8.28001ZM12.93 20.28V14.55C13.4338 14.3177 13.8699 13.9606 14.1971 13.5126C14.5244 13.0646 14.7319 12.5406 14.8 11.99L20.23 10.21C20.3048 10.6527 20.3416 11.101 20.34 11.55C20.3377 13.6413 19.5907 15.6635 18.2329 17.2541C16.875 18.8447 14.9951 19.8997 12.93 20.23V20.28Z" fill="#2C3333"/>
</g>
<defs>
<clipPath id="clip0_173_2">
<rect width="23.11" height="23.11" fill="white"/>
</clipPath>
</defs>
</svg>
