<svg width="48" height="48" viewBox="0 0 48 48" fill="none" xmlns="http://www.w3.org/2000/svg">
<mask id="mask0_719_56" style="mask-type:alpha" maskUnits="userSpaceOnUse" x="0" y="0" width="48" height="48">
<rect width="48" height="48" fill="#D9D9D9"/>
</mask>
<g mask="url(#mask0_719_56)">
<path d="M12.45 42C12.0167 42 11.6333 41.875 11.3 41.625C10.9667 41.375 10.8 41.05 10.8 40.65V36.45C9.83333 35.9167 9.125 35.15 8.675 34.15C8.225 33.15 8 32.0833 8 30.95V11.1C8 8.63333 9.275 6.83333 11.825 5.7C14.375 4.56667 18.45 4 24.05 4C29.5833 4 33.625 4.56667 36.175 5.7C38.725 6.83333 40 8.63333 40 11.1V30.95C40 32.0833 39.775 33.15 39.325 34.15C38.875 35.15 38.1667 35.9167 37.2 36.45V40.65C37.2 41.05 37.0333 41.375 36.7 41.625C36.3667 41.875 35.9833 42 35.55 42H34.6C34.1333 42 33.7333 41.875 33.4 41.625C33.0667 41.375 32.9 41.05 32.9 40.65V37.9H15.1V40.65C15.1 41.05 14.9333 41.375 14.6 41.625C14.2667 41.875 13.8667 42 13.4 42H12.45ZM11 21.45H37V12.8H11V21.45ZM16.3 32.4C17.0667 32.4 17.7167 32.1333 18.25 31.6C18.7833 31.0667 19.05 30.4167 19.05 29.65C19.05 28.8833 18.7833 28.2333 18.25 27.7C17.7167 27.1667 17.0667 26.9 16.3 26.9C15.5333 26.9 14.8833 27.1667 14.35 27.7C13.8167 28.2333 13.55 28.8833 13.55 29.65C13.55 30.4167 13.8167 31.0667 14.35 31.6C14.8833 32.1333 15.5333 32.4 16.3 32.4ZM31.7 32.4C32.4667 32.4 33.1167 32.1333 33.65 31.6C34.1833 31.0667 34.45 30.4167 34.45 29.65C34.45 28.8833 34.1833 28.2333 33.65 27.7C33.1167 27.1667 32.4667 26.9 31.7 26.9C30.9333 26.9 30.2833 27.1667 29.75 27.7C29.2167 28.2333 28.95 28.8833 28.95 29.65C28.95 30.4167 29.2167 31.0667 29.75 31.6C30.2833 32.1333 30.9333 32.4 31.7 32.4Z" fill="#FFB740"/>
</g>
</svg>
