<svg width="48" height="48" viewBox="0 0 48 48" fill="none" xmlns="http://www.w3.org/2000/svg">
<mask id="mask0_719_44" style="mask-type:alpha" maskUnits="userSpaceOnUse" x="0" y="0" width="48" height="48">
<rect width="48" height="48" fill="#D9D9D9"/>
</mask>
<g mask="url(#mask0_719_44)">
<path d="M31 39.45H15C14.1667 39.45 13.4583 39.1583 12.875 38.575C12.2917 37.9917 12 37.2833 12 36.45V13.4H15V36.45H31V39.45ZM21.9 12.1C20.7667 12.1 19.8083 11.7083 19.025 10.925C18.2417 10.1417 17.85 9.18333 17.85 8.05C17.85 6.91667 18.2417 5.95833 19.025 5.175C19.8083 4.39167 20.7667 4 21.9 4C23.0333 4 23.9917 4.39167 24.775 5.175C25.5583 5.95833 25.95 6.91667 25.95 8.05C25.95 9.18333 25.5583 10.1417 24.775 10.925C23.9917 11.7083 23.0333 12.1 21.9 12.1ZM33 44V34.45H20.75C19.7167 34.45 18.8333 34.0917 18.1 33.375C17.3667 32.6583 17 31.7833 17 30.75V19.35C17 17.9833 17.475 16.8333 18.425 15.9C19.375 14.9667 20.5333 14.5 21.9 14.5C23.2667 14.5 24.425 14.9667 25.375 15.9C26.325 16.8333 26.8 17.9833 26.8 19.35V29.45H32.25C33.2833 29.45 34.1667 29.8083 34.9 30.525C35.6333 31.2417 36 32.1167 36 33.15V44H33Z" fill="#FFB740"/>
</g>
</svg>
