<svg width="48" height="48" viewBox="0 0 48 48" fill="none" xmlns="http://www.w3.org/2000/svg">
<mask id="mask0_719_50" style="mask-type:alpha" maskUnits="userSpaceOnUse" x="0" y="0" width="48" height="48">
<rect width="48" height="48" fill="#D9D9D9"/>
</mask>
<g mask="url(#mask0_719_50)">
<path d="M17.75 42C15.5833 42 13.75 41.2417 12.25 39.725C10.75 38.2083 10 36.3833 10 34.25V16.8C8.83333 16.3667 7.875 15.675 7.125 14.725C6.375 13.775 6 12.7 6 11.5C6 9.96667 6.54167 8.66667 7.625 7.6C8.70833 6.53333 10 6 11.5 6C13.0333 6 14.3333 6.53333 15.4 7.6C16.4667 8.66667 17 9.96667 17 11.5C17 12.7 16.625 13.775 15.875 14.725C15.125 15.675 14.1667 16.3667 13 16.8V34.25C13 35.55 13.4583 36.6667 14.375 37.6C15.2917 38.5333 16.4167 39 17.75 39C19.1167 39 20.25 38.5333 21.15 37.6C22.05 36.6667 22.5 35.55 22.5 34.25V13.75C22.5 11.5833 23.25 9.75 24.75 8.25C26.25 6.75 28.0833 6 30.25 6C32.4167 6 34.25 6.75 35.75 8.25C37.25 9.75 38 11.5833 38 13.75V31.2C39.1667 31.6333 40.125 32.325 40.875 33.275C41.625 34.225 42 35.3 42 36.5C42 38 41.4667 39.2917 40.4 40.375C39.3333 41.4583 38.0333 42 36.5 42C35 42 33.7083 41.4583 32.625 40.375C31.5417 39.2917 31 38 31 36.5C31 35.3 31.375 34.2167 32.125 33.25C32.875 32.2833 33.8333 31.6 35 31.2V13.75C35 12.4167 34.5417 11.2917 33.625 10.375C32.7083 9.45833 31.5833 9 30.25 9C28.9167 9 27.7917 9.45833 26.875 10.375C25.9583 11.2917 25.5 12.4167 25.5 13.75V34.25C25.5 36.3833 24.75 38.2083 23.25 39.725C21.75 41.2417 19.9167 42 17.75 42Z" fill="#FFB740"/>
</g>
</svg>
