<svg width="22" height="21" viewBox="0 0 22 21" fill="none" xmlns="http://www.w3.org/2000/svg">
<path d="M10.9051 0.0703184C8.73239 0.0680073 6.61336 0.745536 4.84499 2.00796C3.07663 3.27039 1.74754 5.05445 1.04399 7.11013C0.680594 8.19698 0.494927 9.33533 0.494141 10.4813C0.494141 12.5404 1.10473 14.5533 2.24871 16.2654C3.39268 17.9774 5.01866 19.3118 6.92102 20.0998C8.82338 20.8878 10.9167 21.094 12.9362 20.6923C14.9558 20.2906 16.8108 19.299 18.2668 17.843C19.7228 16.387 20.7144 14.5319 21.1161 12.5124C21.5178 10.4929 21.3116 8.39956 20.5236 6.4972C19.7357 4.59484 18.4013 2.96886 16.6892 1.82489C14.9771 0.680913 12.9642 0.0703184 10.9051 0.0703184ZM9.66123 18.3053C7.79979 18.0076 6.10524 17.0566 4.88129 15.6229C3.65734 14.1892 2.984 12.3664 2.98196 10.4813C2.97841 10.0646 3.01159 9.64832 3.08112 9.2374L7.97564 10.8419C8.03118 11.3445 8.21551 11.8244 8.5108 12.2349C8.80609 12.6455 9.20234 12.9729 9.66123 13.1855V18.3053ZM10.9051 7.53379C10.6404 7.52951 10.3763 7.56289 10.1209 7.63294C9.59608 7.78278 9.12026 8.0689 8.74181 8.46221L6.19089 7.63294L3.84729 6.87577C4.511 5.57474 5.52143 4.48247 6.76694 3.71964C8.01245 2.9568 9.44458 2.55309 10.9051 2.55309C12.3657 2.55309 13.7978 2.9568 15.0433 3.71964C16.2888 4.48247 17.2993 5.57474 17.963 6.87577L15.6194 7.63294L13.0685 8.46221C12.69 8.0689 12.2142 7.78278 11.6893 7.63294C11.434 7.56289 11.1699 7.52951 10.9051 7.53379ZM12.149 18.3504V13.1855C12.6031 12.976 12.9963 12.6542 13.2912 12.2504C13.5862 11.8466 13.7732 11.3742 13.8346 10.8779L18.7292 9.27346C18.7966 9.67251 18.8298 10.0766 18.8283 10.4813C18.8263 12.3664 18.1529 14.1892 16.929 15.6229C15.705 17.0566 14.0105 18.0076 12.149 18.3053V18.3504Z" fill="#FFB740"/>
</svg>
