<svg width="24" height="24" viewBox="0 0 24 24" fill="none" xmlns="http://www.w3.org/2000/svg">
<rect width="24" height="24" rx="4" fill="#EB970D" style="mix-blend-mode:color-burn"/>
<mask id="mask0_729_57" style="mask-type:alpha" maskUnits="userSpaceOnUse" x="4" y="4" width="16" height="16">
<rect x="4" y="4" width="16" height="16" fill="#D9D9D9"/>
</mask>
<g mask="url(#mask0_729_57)">
<path d="M7.33333 18C6.96667 18 6.65267 17.8696 6.39133 17.6087C6.13044 17.3473 6 17.0333 6 16.6667V7.33333C6 6.96667 6.13044 6.65267 6.39133 6.39133C6.65267 6.13044 6.96667 6 7.33333 6H12V7.33333H7.33333V16.6667H12V18H7.33333ZM14.6667 15.3333L13.75 14.3667L15.45 12.6667H10V11.3333H15.45L13.75 9.63333L14.6667 8.66667L18 12L14.6667 15.3333Z" fill="white"/>
</g>
</svg>
