<svg width="41" height="41" viewBox="0 0 41 41" fill="none" xmlns="http://www.w3.org/2000/svg">
<mask id="mask0_616_822" style="mask-type:alpha" maskUnits="userSpaceOnUse" x="0" y="0" width="41" height="41">
<rect x="0.6875" y="0.208008" width="40.0002" height="40.0002" fill="#D9D9D9"/>
</mask>
<g mask="url(#mask0_616_822)">
<path d="M26.5209 33.0828H13.1875C12.4931 33.0828 11.9028 32.8397 11.4167 32.3536C10.9306 31.8675 10.6875 31.2772 10.6875 30.5828V11.3744H13.1875V30.5828H26.5209V33.0828ZM18.9375 10.291C17.9931 10.291 17.1945 9.96465 16.5417 9.31187C15.8889 8.65909 15.5625 7.86048 15.5625 6.91603C15.5625 5.97158 15.8889 5.17297 16.5417 4.52019C17.1945 3.86741 17.9931 3.54102 18.9375 3.54102C19.882 3.54102 20.6806 3.86741 21.3334 4.52019C21.9862 5.17297 22.3125 5.97158 22.3125 6.91603C22.3125 7.86048 21.9862 8.65909 21.3334 9.31187C20.6806 9.96465 19.882 10.291 18.9375 10.291ZM28.1876 36.8745V28.9161H17.9792C17.1181 28.9161 16.382 28.6175 15.7709 28.0203C15.1597 27.423 14.8542 26.6939 14.8542 25.8328V16.3327C14.8542 15.1938 15.25 14.2355 16.0417 13.4577C16.8334 12.6799 17.7986 12.291 18.9375 12.291C20.0764 12.291 21.0417 12.6799 21.8334 13.4577C22.625 14.2355 23.0209 15.1938 23.0209 16.3327V24.7494H27.5626C28.4237 24.7494 29.1598 25.048 29.7709 25.6453C30.382 26.2425 30.6876 26.9717 30.6876 27.8328V36.8745H28.1876Z" fill="#005792"/>
</g>
</svg>
