<svg width="41" height="41" viewBox="0 0 41 41" fill="none" xmlns="http://www.w3.org/2000/svg">
<g clip-path="url(#clip0_610_53)">
<path d="M38.3398 14.5448V14.3018C38.3398 14.3018 38.3223 14.458 38.3398 14.5448Z" fill="#005792"/>
<path d="M38.2705 14.3018V14.5448C38.323 14.458 38.288 14.3885 38.2705 14.3018Z" fill="#005792"/>
<path d="M20.0617 0.247082C15.8896 0.242644 11.8206 1.54365 8.42491 3.96779C5.02926 6.39193 2.47712 9.81771 1.12614 13.7651C0.428345 15.8521 0.0718232 18.038 0.0703125 20.2385C0.0703125 24.1924 1.24279 28.0576 3.43947 31.3451C5.63616 34.6327 8.75839 37.1951 12.4113 38.7082C16.0643 40.2213 20.0839 40.6172 23.9619 39.8458C27.8398 39.0744 31.4019 37.1704 34.1978 34.3746C36.9936 31.5787 38.8976 28.0166 39.669 24.1386C40.4404 20.2607 40.0445 16.2411 38.5314 12.5881C37.0183 8.93516 34.4559 5.81293 31.1684 3.61624C27.8808 1.41956 24.0157 0.247082 20.0617 0.247082ZM17.6731 35.2624C14.0988 34.6906 10.8449 32.8645 8.49461 30.1115C6.14436 27.3584 4.8514 23.8583 4.84748 20.2385C4.84066 19.4383 4.90437 18.639 5.03788 17.8499L14.4364 20.9308C14.5431 21.8961 14.8971 22.8175 15.4641 23.6058C16.0311 24.3942 16.792 25.0229 17.6731 25.4311V35.2624ZM20.0617 14.5786C19.5533 14.5704 19.0463 14.6345 18.5559 14.769C17.5481 15.0567 16.6344 15.6061 15.9077 16.3614L11.0093 14.769L6.50911 13.3151C7.78358 10.8168 9.72381 8.71939 12.1155 7.25458C14.5071 5.78977 17.2571 5.01455 20.0617 5.01455C22.8663 5.01455 25.6163 5.78977 28.008 7.25458C30.3997 8.71939 32.3399 10.8168 33.6144 13.3151L29.1141 14.769L24.2158 16.3614C23.4891 15.6061 22.5754 15.0567 21.5676 14.769C21.0772 14.6345 20.5702 14.5704 20.0617 14.5786ZM22.4503 35.3489V25.4311C23.3223 25.0289 24.0772 24.4109 24.6436 23.6355C25.21 22.8601 25.5691 21.953 25.687 21.0001L35.0856 17.9192C35.2151 18.6854 35.2788 19.4614 35.276 20.2385C35.2721 23.8583 33.9791 27.3584 31.6289 30.1115C29.2786 32.8645 26.0247 34.6906 22.4503 35.2624V35.3489Z" fill="#005792"/>
</g>
<defs>
<clipPath id="clip0_610_53">
<rect width="40.0002" height="40.0002" fill="white" transform="translate(0.0703125 0.24707)"/>
</clipPath>
</defs>
</svg>
