<svg width="38" height="38" viewBox="0 0 38 38" fill="none" xmlns="http://www.w3.org/2000/svg">
<path d="M33.8408 26.4098C33.0214 28.2296 32.6265 29.043 31.5726 30.6491C30.0972 32.8935 28.0161 35.696 25.4451 35.7138C23.1562 35.7346 22.5654 34.2205 19.4572 34.2473C16.3518 34.2621 15.7047 35.7435 13.4128 35.7198C10.8389 35.696 8.8706 33.1726 7.39513 30.9312C3.26856 24.6463 2.83216 17.2779 5.38231 13.3591C7.18731 10.5804 10.0403 8.94758 12.7211 8.94758C15.4523 8.94758 17.1683 10.4468 19.4245 10.4468C21.6154 10.4468 22.9484 8.94461 26.1072 8.94461C28.494 8.94461 31.0175 10.2449 32.8225 12.4893C26.9206 15.7252 27.8795 24.1535 33.8408 26.4098ZM23.7084 6.43602C24.8573 4.96055 25.7301 2.87945 25.4125 0.759766C23.5392 0.887422 21.3483 2.08383 20.0687 3.63352C18.9079 5.04664 17.9461 7.14258 18.3201 9.17023C20.3656 9.23555 22.4823 8.01539 23.7084 6.43602Z" fill="white"/>
</svg>
