<svg width="24" height="24" viewBox="0 0 24 24" fill="none" xmlns="http://www.w3.org/2000/svg">
<rect width="24" height="24" rx="5" fill="#FFB740"/>
<mask id="mask0_862_161" style="mask-type:alpha" maskUnits="userSpaceOnUse" x="4" y="4" width="16" height="16">
<rect x="4" y="4" width="16" height="16" fill="white"/>
</mask>
<g mask="url(#mask0_862_161)">
<path d="M10.6669 18.6663C10.478 18.6663 10.3198 18.6023 10.1922 18.4743C10.0642 18.3468 10.0002 18.1886 10.0002 17.9997V15.4663L7.80025 16.733C7.64469 16.8219 7.47803 16.8415 7.30025 16.7917C7.12247 16.7415 6.98914 16.6386 6.90025 16.483L5.56692 14.183C5.47803 14.0275 5.45581 13.8579 5.50025 13.6743C5.54469 13.4912 5.64469 13.3552 5.80025 13.2663L8.00025 11.9997L5.80025 10.733C5.64469 10.6441 5.54469 10.5079 5.50025 10.3243C5.45581 10.1412 5.47803 9.9719 5.56692 9.81634L6.90025 7.51634C6.98914 7.36079 7.12247 7.2579 7.30025 7.20767C7.47803 7.1579 7.64469 7.17745 7.80025 7.26634L10.0002 8.53301V5.99967C10.0002 5.81079 10.0642 5.65234 10.1922 5.52434C10.3198 5.39679 10.478 5.33301 10.6669 5.33301H13.3336C13.5225 5.33301 13.6809 5.39679 13.8089 5.52434C13.9365 5.65234 14.0003 5.81079 14.0003 5.99967V8.53301L16.2002 7.26634C16.3558 7.17745 16.5225 7.1579 16.7002 7.20767C16.878 7.2579 17.0114 7.36079 17.1002 7.51634L18.4336 9.81634C18.5225 9.9719 18.5447 10.1412 18.5002 10.3243C18.4558 10.5079 18.3558 10.6441 18.2002 10.733L16.0003 11.9997L18.2002 13.2663C18.3558 13.3552 18.4558 13.4912 18.5002 13.6743C18.5447 13.8579 18.5225 14.0275 18.4336 14.183L17.1002 16.483C17.0114 16.6386 16.878 16.7415 16.7002 16.7917C16.5225 16.8415 16.3558 16.8219 16.2002 16.733L14.0003 15.4663V17.9997C14.0003 18.1886 13.9365 18.3468 13.8089 18.4743C13.6809 18.6023 13.5225 18.6663 13.3336 18.6663H10.6669Z" fill="white"/>
</g>
</svg>
