<svg width="24" height="24" viewBox="0 0 24 24" fill="none" xmlns="http://www.w3.org/2000/svg">
<path d="M0 4.38358C0 1.96259 1.96259 0 4.38358 0H19.6164C22.0374 0 24 1.96259 24 4.38358V19.6164C24 22.0374 22.0374 24 19.6164 24H4.38358C1.96259 24 0 22.0374 0 19.6164V4.38358Z" fill="#1184D2"/>
<path d="M15.5208 11.5752H12.8906V12.5615H15.5208V11.5752Z" fill="#FFB740"/>
<path d="M15.5208 13.5488H12.8906V14.5351H15.5208V13.5488Z" fill="#FFB740"/>
<path d="M16.8357 8.28768H13.548V6.31507C13.548 5.59178 12.9562 5 12.2329 5H10.9178C10.1945 5 9.60276 5.59178 9.60276 6.31507V8.28768H6.31507C5.59178 8.28768 5 8.87947 5 9.60276V16.8357C5 17.559 5.59178 18.1507 6.31507 18.1507H16.8357C17.559 18.1507 18.1507 17.559 18.1507 16.8357V9.60276C18.1507 8.87947 17.559 8.28768 16.8357 8.28768ZM10.9178 8.28768V6.31507H12.2329V8.28768V9.60276H10.9178V8.28768ZM16.8357 16.8357H6.31507V9.60276H9.60276C9.60276 10.326 10.1945 10.9178 10.9178 10.9178H12.2329C12.9562 10.9178 13.548 10.326 13.548 9.60276H16.8357V16.8357Z" fill="#FFB740"/>
<path d="M9.60252 13.5478C10.1472 13.5478 10.5888 13.1062 10.5888 12.5615C10.5888 12.0168 10.1472 11.5752 9.60252 11.5752C9.05779 11.5752 8.61621 12.0168 8.61621 12.5615C8.61621 13.1062 9.05779 13.5478 9.60252 13.5478Z" fill="#FFB740"/>
<path d="M10.9711 14.3238C10.5503 14.1396 10.09 14.041 9.60347 14.041C9.11689 14.041 8.65662 14.1396 8.23579 14.3238C7.86757 14.4816 7.63086 14.8366 7.63086 15.2377V15.5205H11.5761V15.2377C11.5761 14.8366 11.3394 14.4816 10.9711 14.3238Z" fill="#FFB740"/>
</svg>
