<svg width="25" height="25" viewBox="0 0 25 25" fill="none" xmlns="http://www.w3.org/2000/svg">
<path d="M0.126953 4.42557C0.126953 2.00459 2.08955 0.0419922 4.51053 0.0419922H19.7434C22.1644 0.0419922 24.127 2.00459 24.127 4.42557V19.6584C24.127 22.0794 22.1644 24.042 19.7434 24.042H4.51053C2.08955 24.042 0.126953 22.0794 0.126953 19.6584V4.42557Z" fill="#1184D2"/>
<g clip-path="url(#clip0_613_238)">
<path d="M16.3442 14.4289V9.12292C16.3442 7.6894 15.1831 6.52832 13.7496 6.52832C12.3161 6.52832 11.155 7.6894 11.155 9.12292V15.6094C11.155 16.3229 10.5712 16.9067 9.85771 16.9067C9.1442 16.9067 8.56042 16.3229 8.56042 15.6094V10.3035C9.31285 10.031 9.85771 9.31751 9.85771 8.47427C9.85771 7.39751 8.98852 6.52832 7.91177 6.52832C6.83501 6.52832 5.96582 7.39751 5.96582 8.47427C5.96582 9.31751 6.51069 10.031 7.26312 10.3035V15.6094C7.26312 17.0429 8.4242 18.204 9.85771 18.204C11.2912 18.204 12.4523 17.0429 12.4523 15.6094V9.12292C12.4523 8.4094 13.0361 7.82562 13.7496 7.82562C14.4631 7.82562 15.0469 8.4094 15.0469 9.12292V14.4289C14.2945 14.6948 13.7496 15.4083 13.7496 16.2581C13.7496 17.3348 14.6188 18.204 15.6956 18.204C16.7723 18.204 17.6415 17.3348 17.6415 16.2581C17.6415 15.4148 17.0966 14.7013 16.3442 14.4289ZM7.91177 9.12292C7.55501 9.12292 7.26312 8.83102 7.26312 8.47427C7.26312 8.11751 7.55501 7.82562 7.91177 7.82562C8.26852 7.82562 8.56042 8.11751 8.56042 8.47427C8.56042 8.83102 8.26852 9.12292 7.91177 9.12292ZM15.6956 16.9067C15.3388 16.9067 15.0469 16.6148 15.0469 16.2581C15.0469 15.9013 15.3388 15.6094 15.6956 15.6094C16.0523 15.6094 16.3442 15.9013 16.3442 16.2581C16.3442 16.6148 16.0523 16.9067 15.6956 16.9067Z" fill="#FFB740"/>
</g>
<defs>
<clipPath id="clip0_613_238">
<rect width="15.5676" height="15.5676" fill="white" transform="translate(4.01953 4.58203)"/>
</clipPath>
</defs>
</svg>
