<svg width="54" height="54" viewBox="0 0 54 54" fill="none" xmlns="http://www.w3.org/2000/svg">
<path d="M27 4.5C18.2925 4.5 11.25 11.5425 11.25 20.25C11.25 32.0625 27 49.5 27 49.5C27 49.5 42.75 32.0625 42.75 20.25C42.75 11.5425 35.7075 4.5 27 4.5ZM15.75 20.25C15.75 14.04 20.79 9 27 9C33.21 9 38.25 14.04 38.25 20.25C38.25 26.73 31.77 36.4275 27 42.48C22.32 36.4725 15.75 26.6625 15.75 20.25Z" fill="#FFB740"/>
<path d="M27 25.875C30.1066 25.875 32.625 23.3566 32.625 20.25C32.625 17.1434 30.1066 14.625 27 14.625C23.8934 14.625 21.375 17.1434 21.375 20.25C21.375 23.3566 23.8934 25.875 27 25.875Z" fill="#FFB740"/>
</svg>
