<svg width="163" height="125" viewBox="0 0 163 125" fill="none" xmlns="http://www.w3.org/2000/svg">
<path d="M41.4116 0C18.588 0 0 18.5879 0 41.4116C0 64.2354 18.588 82.8161 41.4116 82.8161C64.2355 82.8161 82.8233 64.2354 82.8233 41.4116C82.8233 18.5879 64.2355 0 41.4116 0ZM41.4116 7.86543C59.9818 7.86543 74.9507 22.8415 74.9507 41.4116C74.9507 59.9818 59.9818 74.9505 41.4116 74.9505C22.8416 74.9505 7.87273 59.9818 7.87273 41.4116C7.87273 22.8415 22.8416 7.86543 41.4116 7.86543Z" fill="#EAE8E8"/>
<path d="M82.9017 78.1293V5.85921H109.736L110.498 11.3481C113.243 9.51849 116.851 7.89216 121.324 6.46909C125.898 5.04601 130.777 4.33447 135.961 4.33447C145.007 4.33447 151.614 6.57071 155.782 11.0432C159.949 15.5156 162.033 22.4275 162.033 31.7789V78.1293H133.369V34.6758C133.369 31.4231 132.657 29.0853 131.234 27.6622C129.811 26.2392 127.321 25.5277 123.763 25.5277C121.629 25.5277 119.392 26.0359 117.055 27.0523C114.818 28.0688 112.989 29.2885 111.566 30.7115V78.1293H82.9017Z" fill="#EAE8E8"/>
<path d="M38.8698 18.1858V41.281H23.1535V49.1537H46.7352V18.1858H38.8698Z" fill="#EAE8E8"/>
<path d="M152.495 74.8615C152.299 74.7187 152.018 74.7306 151.664 74.8973C151.31 75.064 150.931 75.3974 150.541 75.8856C150.235 76.231 149.783 76.8026 149.185 77.6123C148.587 78.422 147.842 79.327 146.962 80.3273C146.083 81.3276 145.106 82.3636 144.031 83.4472C142.956 84.5189 141.833 85.5073 140.685 86.4123C139.537 87.3173 138.352 88.0556 137.155 88.651C135.958 89.2345 134.774 89.5322 133.626 89.5322C133.369 89.5322 133.211 89.5203 133.137 89.4965C133.064 89.4727 133.027 89.4489 133.027 89.425C133.027 89.4012 133.003 89.3774 132.954 89.3536C132.905 89.3298 132.783 89.2941 132.576 89.2464C133.528 88.0794 134.432 86.8053 135.287 85.4359C136.142 84.0664 136.887 82.6732 137.546 81.2561C138.193 79.8391 138.706 78.4459 139.085 77.0764C139.464 75.707 139.671 74.409 139.72 73.1944C139.769 72.0751 139.744 70.9319 139.647 69.7887C139.549 68.6456 139.293 67.5976 138.89 66.6688C138.487 65.74 137.925 65.0017 137.204 64.4301C136.471 63.8704 135.543 63.5847 134.383 63.5847C133.528 63.5847 132.637 63.7633 131.721 64.1324C130.792 64.5016 129.889 64.9779 129.009 65.5614C128.13 66.1449 127.263 66.8117 126.42 67.5381C125.565 68.2764 124.796 69.0266 124.088 69.8125C124.088 69.622 124.1 69.4315 124.124 69.2648C124.149 69.0981 124.185 68.8837 124.234 68.6456C124.478 67.038 124.442 65.8591 124.124 65.1327C123.794 64.3944 122.964 63.9895 121.608 63.8824C121.059 63.8347 120.509 63.8824 119.96 64.0253C119.459 64.1205 118.897 64.311 118.274 64.573C117.651 64.8469 117.029 65.216 116.43 65.7043C117.285 66.5378 117.651 67.5262 117.554 68.6694C117.456 69.8125 117.151 71.3487 116.65 73.254C116.528 73.766 116.406 74.29 116.284 74.8258C116.125 74.9568 115.978 75.1235 115.832 75.3021C115.184 76.231 114.183 77.4694 112.827 79.0055C111.472 80.5417 110.006 82.054 108.431 83.5544C106.855 85.0429 105.304 86.329 103.765 87.4007C102.239 88.4724 100.969 89.0083 99.9671 89.0083C99.6129 89.0083 99.2954 88.9011 98.9901 88.6748C98.6848 88.4605 98.4161 88.0556 98.1596 87.4602C97.9031 86.972 97.8299 86.2694 97.9398 85.3406C98.0375 84.4118 98.2329 83.4234 98.5016 82.3755C98.7703 81.3276 99.0878 80.2559 99.442 79.1484C99.7961 78.0529 100.089 77.0645 100.346 76.1833C100.59 75.3021 100.969 74.1709 101.469 72.7776C101.97 71.3844 102.446 70.0269 102.898 68.7051C103.35 67.3833 103.729 66.2401 104.022 65.2637C104.327 64.2872 104.449 63.7752 104.4 63.7276C104.303 63.6799 103.936 63.668 103.313 63.6918C102.691 63.7156 101.994 63.7871 101.249 63.9062C100.492 64.0253 99.7717 64.192 99.0756 64.3825C98.3672 64.573 97.9031 64.8231 97.6467 65.1208C96.8406 66.0972 96.1323 67.5857 95.5094 69.5863C94.8866 71.5868 94.3736 73.7065 93.9706 75.9214C93.9095 76.231 93.8607 76.5525 93.8118 76.8621C93.6897 77.0407 93.5554 77.2193 93.4088 77.4218C92.7859 78.303 92.0165 79.2913 91.1128 80.3869C90.209 81.4824 89.232 82.6137 88.1817 83.7568C87.1314 84.9 86.0689 85.9598 84.9819 86.9125C83.9072 87.8651 82.8569 88.651 81.831 89.2583C80.8051 89.8656 79.8647 90.1753 79.0098 90.1753C77.8618 90.1753 77.1535 89.9847 76.9092 89.5918C76.6527 89.1988 76.4818 88.6868 76.3841 88.0556C76.2863 87.0792 76.5795 85.9836 77.2878 84.7571C77.9839 83.5425 78.6923 82.435 79.3884 81.4586C80.5364 79.8986 81.5135 78.4578 82.3195 77.136C83.1256 75.8142 83.4431 74.5519 83.2965 73.3254C83.2477 72.7419 83.1378 72.087 82.9546 71.3844C82.7836 70.6818 82.5149 70.015 82.1607 69.4077C81.8066 68.8004 81.3547 68.2883 80.8051 67.8715C80.2555 67.4548 79.5472 67.2523 78.7045 67.2523C77.9962 67.2523 77.4832 67.3 77.1657 67.3952C76.8359 67.4905 76.2741 67.5381 75.4803 67.5381C74.9307 67.5381 74.5277 67.4786 74.2834 67.3595C74.027 67.2404 73.8316 67.1332 73.685 67.0261C74.2346 66.2401 74.6132 65.3709 74.8086 64.3825C75.004 63.406 75.0528 62.5963 74.9551 61.9652C74.8574 61.0363 74.5155 60.1313 73.9415 59.2501C73.3675 58.3689 72.3782 57.9283 70.9737 57.9283C70.2165 57.9283 69.4471 58.2737 68.6411 58.9524C67.835 59.6431 67.1145 60.4528 66.4672 61.4055C65.8199 62.3581 65.2948 63.3465 64.8917 64.3706C64.4887 65.3947 64.3421 66.2282 64.4398 66.8594C64.5376 67.5977 64.6841 68.074 64.8917 68.2883C65.0871 68.5027 65.4657 68.8599 66.0153 69.3481C65.71 69.884 65.2337 70.7533 64.5864 71.9441C63.9391 73.1468 63.2186 74.4924 62.4492 76.0166C62.0217 76.8621 61.5698 77.7314 61.118 78.6245C60.9225 78.8507 60.7393 79.077 60.5317 79.3151C59.5303 80.4821 58.4433 81.6848 57.2587 82.9114C56.0862 84.1379 54.9138 85.2572 53.7658 86.2813C52.6178 87.3054 51.4942 88.1271 50.4195 88.7344C49.3447 89.3417 48.4288 89.6037 47.6716 89.5084C46.719 89.4608 45.9129 89.1631 45.2656 88.6272C44.7161 88.139 44.252 87.3411 43.8734 86.2456C43.4948 85.1501 43.4581 83.5425 43.7634 81.4467C45.0702 78.5173 46.2427 75.7546 47.293 73.1706C48.3433 70.5866 49.247 68.2883 50.0042 66.2878C50.8591 63.9895 51.6041 61.8699 52.2636 59.917C52.5689 59.0834 52.801 58.2975 52.972 57.5354C53.1429 56.7733 53.3383 56.0112 53.5337 55.2252C53.9368 55.2252 54.3276 55.2133 54.694 55.1895C55.0726 55.1657 55.4023 55.1538 55.7076 55.1538C57.3075 55.1538 58.712 55.2014 59.9211 55.2967C61.1179 55.3919 62.1683 55.4872 63.0354 55.5944C63.9147 55.6896 64.6597 55.8087 65.2948 55.9635C65.9176 56.1064 66.4794 56.2136 66.9801 56.2612C67.4809 56.3565 67.9327 56.2612 68.3358 55.9635C68.7388 55.6658 69.0197 55.3205 69.2029 54.9037C69.3739 54.4869 69.4471 54.0821 69.4227 53.6891C69.3983 53.2961 69.2029 53.058 68.8609 52.9508C68.5067 52.8555 67.9816 52.665 67.2855 52.403C66.5771 52.141 65.6611 51.8672 64.5009 51.5933C63.3529 51.3313 61.9606 51.0812 60.3241 50.855C58.6998 50.6406 56.8312 50.5216 54.7306 50.5216C55.2313 48.0328 55.5122 45.9727 55.5611 44.3651C55.6099 42.7575 55.5122 41.7573 55.2558 41.3643C54.9993 41.0666 54.6085 40.888 54.0589 40.8165C53.5093 40.7451 52.9353 40.7451 52.3247 40.8165C51.714 40.888 51.1645 41.0071 50.6393 41.1857C50.1141 41.3524 49.7722 41.5667 49.6256 41.8049C49.1249 42.4956 48.5631 43.6983 47.9403 45.4368C47.3174 47.1754 46.6701 49.2117 46.0228 51.5576C45.1679 51.7005 44.3008 51.8314 43.4337 51.9267C42.5544 52.022 41.6384 52.0934 40.6858 52.141C39.379 52.1887 38.1822 52.1768 37.083 52.1053C35.9838 52.0339 34.958 51.9505 34.0054 51.8433C33.7 51.8433 33.3703 51.9743 32.9917 52.2482C32.6131 52.5221 32.3078 52.8317 32.0513 53.2009C31.807 53.57 31.6483 53.9392 31.5994 54.2964C31.5506 54.6655 31.7215 54.9394 32.1246 55.1419C32.8329 55.4872 33.8954 55.8325 35.3243 56.2017C36.7533 56.5708 38.2676 56.7494 39.8675 56.7494C40.5637 56.7494 41.3453 56.7018 42.2002 56.6066C43.0551 56.5113 43.8978 56.416 44.7527 56.3089C44.0443 59.143 43.3848 62.0842 42.762 65.1446C42.1391 68.1931 41.5651 71.051 41.0766 73.7184C40.5759 76.3858 40.1729 78.7317 39.8797 80.756C39.5744 82.7804 39.4034 84.1855 39.3546 84.9714C39.2569 85.9003 39.3302 86.9125 39.5744 88.008C39.8187 89.1035 40.2583 90.1276 40.8934 91.0445C41.5163 91.9734 42.3834 92.7593 43.4825 93.3904C44.5817 94.0215 45.9618 94.3431 47.6105 94.3431C48.7585 94.3431 50.1874 93.7357 51.8972 92.5092C53.1429 91.6161 54.4253 90.5325 55.7321 89.2822C55.2313 90.2705 54.9016 90.9016 54.755 91.1874C54.4497 91.7709 54.352 92.2592 54.4497 92.6521C54.5474 93.0451 54.7673 93.2952 55.0848 93.4261C55.4145 93.5452 55.7931 93.5214 56.2084 93.3547C56.6358 93.188 57.0266 92.8307 57.3686 92.2949C57.5152 92.1043 57.906 91.497 58.5288 90.4968C59.1517 89.4965 59.9211 88.27 60.8248 86.8291C61.7286 85.3882 62.6934 83.8402 63.7193 82.1731C64.7452 80.5178 65.7222 78.9222 66.6504 77.4099C67.5786 75.8975 68.3968 74.5757 69.093 73.4564C69.7891 72.337 70.241 71.5987 70.4486 71.2534C70.8516 71.3487 71.2791 71.5035 71.7309 71.694C72.1828 71.8845 72.7324 71.9917 73.3797 71.9917C73.8316 71.9917 74.1735 71.9798 74.3933 71.956C74.6132 71.9322 74.7964 71.9203 74.9185 71.9203C75.0406 71.9203 75.1628 71.9084 75.2971 71.8845C75.4192 71.8607 75.6391 71.8488 75.9322 71.8488C76.384 71.8488 76.7138 72.0155 76.9092 72.3609C77.1046 72.7062 77.2145 73.0992 77.2145 73.5278C77.2145 74.2185 76.9458 75.0521 76.4207 76.0523C75.8955 77.0526 75.1994 78.2672 74.3567 79.6843C74.0025 80.375 73.6117 81.0656 73.1965 81.7682C72.769 82.4827 72.366 83.1852 71.9996 83.8878C71.621 84.6023 71.2913 85.2811 71.0226 85.936C70.7417 86.5909 70.5829 87.2221 70.5341 87.8056C70.4852 88.5438 70.5707 89.3298 70.8028 90.1872C71.0226 91.0445 71.4012 91.8305 71.9263 92.533C72.4515 93.2356 73.1354 93.8429 73.9903 94.3312C74.8452 94.8194 75.92 95.0694 77.2267 95.0694C78.4847 95.0694 79.7914 94.7003 81.1715 93.9739C82.5515 93.2356 83.9316 92.3068 85.2995 91.1517C86.6795 90.0085 87.9863 88.7344 89.2442 87.3411C90.5021 85.9479 91.6379 84.5904 92.6638 83.2686C92.8226 83.0662 92.9813 82.8518 93.1401 82.6494C93.0058 84.6618 93.0058 86.2694 93.1523 87.4364C93.2012 88.27 93.4577 89.0559 93.9095 89.818C94.3614 90.5801 94.9232 91.2351 95.5949 91.7947C96.2666 92.3544 97.0238 92.795 97.8543 93.1165C98.6848 93.438 99.5152 93.569 100.37 93.5214C101.42 93.4738 102.788 92.8307 104.461 91.6161C106.135 90.3896 107.857 88.913 109.615 87.1863C111.374 85.4478 113.023 83.6497 114.574 81.7682C114.598 81.7325 114.623 81.7086 114.647 81.6729C114.439 82.5541 114.232 83.3996 114.049 84.2212C113.548 86.1742 113.047 88.1271 112.546 90.08C111.997 92.1282 111.35 94.6765 110.592 97.7011C109.896 100.285 109.054 103.512 108.076 107.37C107.099 111.229 105.915 115.777 104.51 121.005C104.706 121.541 104.962 121.993 105.268 122.363C105.573 122.732 105.866 123.029 106.171 123.28C106.525 123.577 106.88 123.792 107.222 123.934C108.223 124.327 109.115 124.423 109.884 124.232C110.666 124.042 111.203 123.28 111.496 121.958C112.351 117.123 113.157 112.812 113.939 109.026C114.72 105.239 115.38 102.024 115.929 99.3921C116.577 96.3198 117.212 93.6048 117.81 91.2589C117.859 91.0207 117.896 90.8183 117.92 90.6754C117.944 90.5325 117.981 90.3539 118.03 90.1633C118.177 90.6992 118.384 91.247 118.628 91.8067C118.873 92.3663 119.202 92.8784 119.605 93.3428C120.008 93.8072 120.521 94.1763 121.144 94.4383C121.767 94.7003 122.512 94.8432 123.367 94.8432C124.271 94.8432 125.199 94.6646 126.152 94.2954C127.104 93.9263 128.032 93.4023 128.936 92.7236C129.29 92.8665 129.583 93.0094 129.84 93.1284C130.084 93.2475 130.353 93.3666 130.634 93.4976C130.902 93.6167 131.244 93.7 131.647 93.7596C132.05 93.8072 132.576 93.831 133.223 93.831C134.578 93.831 135.971 93.4738 137.4 92.7712C138.829 92.0686 140.221 91.1755 141.576 90.0919C142.932 89.0202 144.214 87.8175 145.448 86.4957C146.669 85.1739 147.768 83.9116 148.721 82.6851C149.674 81.4705 150.48 80.363 151.127 79.3866C151.774 78.4101 152.202 77.6956 152.409 77.267C152.715 76.6358 152.861 76.1119 152.861 75.6951C152.8 75.2902 152.702 75.0044 152.495 74.8615ZM129.62 84.126C128.79 85.2215 128.008 86.2099 127.251 87.0911C126.054 86.4599 125.016 85.8526 124.173 85.293C123.318 84.7333 122.622 84.4475 122.072 84.4475C121.572 84.4475 121.071 84.5189 120.57 84.6618C120.07 84.8047 119.618 85.031 119.215 85.3168C119.569 83.8045 119.874 82.4946 120.155 81.399C120.424 80.3035 120.692 79.339 120.949 78.5054C122.854 75.6713 124.723 73.3611 126.542 71.5749C128.374 69.7887 130.06 68.8956 131.611 68.8956C132.661 68.8956 133.418 69.3124 133.87 70.146C134.322 70.9795 134.493 72.1227 134.395 73.5874C134.346 74.7067 134.078 75.8856 133.601 77.1003C133.125 78.3268 132.551 79.5176 131.867 80.6965C131.195 81.8873 130.438 83.0304 129.62 84.126Z" fill="#FFB740"/>
</svg>
