<svg width="151" height="114" viewBox="0 0 151 114" fill="none" xmlns="http://www.w3.org/2000/svg">
<path d="M38.6383 0.550232C17.3828 0.550232 0.0569458 17.6804 0.0569458 38.7204C0.0569458 59.7604 17.3716 76.8796 38.6383 76.8796C59.9049 76.8796 77.2196 59.7604 77.2196 38.7204C77.2084 17.6804 59.8937 0.550232 38.6383 0.550232ZM38.6383 7.7955C55.9418 7.7955 69.8851 21.6013 69.8851 38.7094C69.8851 55.8285 55.9418 69.6233 38.6383 69.6233C21.3347 69.6233 7.39141 55.8285 7.39141 38.7094C7.39141 21.6013 21.3347 7.7955 38.6383 7.7955Z" fill="#005792"/>
<path d="M77.2869 72.5575V5.95845H102.282L102.997 11.0169C105.553 9.32706 108.913 7.83604 113.077 6.52173C117.342 5.20742 121.885 4.55579 126.708 4.55579C135.137 4.55579 141.288 6.62113 145.173 10.7408C149.058 14.8604 151 21.2332 151 29.848V72.5685H124.297V32.5097C124.297 29.5166 123.638 27.3629 122.31 26.0486C120.981 24.7343 118.659 24.0827 115.355 24.0827C113.368 24.0827 111.28 24.5465 109.103 25.4853C107.016 26.4241 105.319 27.5507 103.99 28.8539V72.5575H77.2869Z" fill="#005792"/>
<path d="M36.272 17.3123V38.5953H21.6254V45.8516H43.5953V17.3123H36.272Z" fill="#005792"/>
<path d="M96.8006 47.2358C97.1243 47.512 97.5374 47.6003 98.0397 47.512C98.5421 47.4236 99.0333 47.2248 99.5133 46.9376C99.9934 46.6394 100.429 46.2529 100.819 45.7779C101.21 45.303 101.467 44.8171 101.612 44.3201C101.746 43.8672 101.802 43.3481 101.78 42.7517C101.757 42.1664 101.657 41.6252 101.467 41.1502C101.288 40.6753 101.02 40.2888 100.674 39.9906C100.328 39.6924 99.904 39.593 99.4017 39.6813C98.8993 39.7697 98.3076 40.0789 97.6155 40.598C96.9234 41.1171 96.354 41.7577 95.8963 42.4977C95.4386 43.2487 95.2265 44.0439 95.2823 44.8723C95.3381 45.7338 95.8405 46.5069 96.8006 47.2358Z" fill="#FFB740"/>
<path d="M142.281 67.834C142.102 67.7015 141.846 67.7125 141.522 67.8672C141.198 68.0218 140.852 68.331 140.495 68.7839C140.216 69.1042 139.803 69.6343 139.256 70.3853C138.709 71.1364 138.028 71.9757 137.224 72.9035C136.42 73.8312 135.527 74.7921 134.545 75.7972C133.562 76.7912 132.535 77.7079 131.486 78.5473C130.436 79.3867 129.353 80.0715 128.259 80.6237C127.165 81.1649 126.083 81.441 125.033 81.441C124.799 81.441 124.654 81.4299 124.587 81.4078C124.52 81.3858 124.486 81.3637 124.486 81.3416C124.486 81.3195 124.464 81.2974 124.419 81.2753C124.375 81.2532 124.263 81.2201 124.073 81.1759C124.944 80.0935 125.77 78.9118 126.551 77.6416C127.333 76.3715 128.014 75.0793 128.617 73.765C129.208 72.4507 129.677 71.1584 130.023 69.8883C130.369 68.6182 130.559 67.4143 130.604 66.2878C130.648 65.2496 130.626 64.1893 130.537 63.129C130.447 62.0687 130.213 61.0968 129.845 60.2353C129.476 59.3738 128.963 58.6891 128.304 58.1589C127.634 57.6398 126.786 57.3748 125.725 57.3748C124.944 57.3748 124.129 57.5404 123.292 57.8828C122.443 58.2252 121.617 58.667 120.813 59.2082C120.01 59.7494 119.217 60.3679 118.447 61.0416C117.665 61.7263 116.962 62.4222 116.314 63.1511C116.314 62.9744 116.326 62.7977 116.348 62.6431C116.37 62.4884 116.404 62.2896 116.448 62.0687C116.672 60.5777 116.638 59.4843 116.348 58.8106C116.046 58.1258 115.287 57.7503 114.048 57.6509C113.546 57.6067 113.043 57.6509 112.541 57.7834C112.083 57.8718 111.57 58.0485 111.001 58.2915C110.431 58.5455 109.862 58.8879 109.315 59.3407C110.096 60.1138 110.431 61.0305 110.342 62.0908C110.253 63.1511 109.973 64.5759 109.516 66.343C109.404 66.8179 109.293 67.3039 109.181 67.8009C109.036 67.9224 108.902 68.077 108.768 68.2427C108.176 69.1041 107.261 70.2528 106.022 71.6775C104.782 73.1023 103.443 74.505 102.003 75.8966C100.563 77.2772 99.1448 78.47 97.7382 79.464C96.3428 80.458 95.1818 80.955 94.2664 80.955C93.9426 80.955 93.6524 80.8556 93.3733 80.6458C93.0942 80.447 92.8486 80.0715 92.6142 79.5192C92.3797 79.0664 92.3127 78.4148 92.4132 77.5533C92.5025 76.6918 92.6811 75.7751 92.9267 74.8032C93.1723 73.8312 93.4626 72.8372 93.7863 71.8101C94.1101 70.794 94.378 69.8773 94.6124 69.06C94.8357 68.2427 95.1818 67.1934 95.6395 65.9012C96.0972 64.609 96.5326 63.3499 96.9456 62.124C97.3587 60.898 97.7047 59.8377 97.9727 58.9321C98.2518 58.0264 98.3634 57.5515 98.3187 57.5073C98.2294 57.4631 97.8945 57.4521 97.3252 57.4742C96.7558 57.4963 96.1195 57.5625 95.4385 57.673C94.7464 57.7834 94.0877 57.938 93.4514 58.1148C92.8039 58.2915 92.3797 58.5234 92.1453 58.7995C91.4085 59.7052 90.761 61.0858 90.1917 62.9413C89.6223 64.7967 89.1534 66.7627 88.785 68.817C88.7292 69.1041 88.6846 69.4024 88.6399 69.6895C88.5283 69.8552 88.4055 70.0209 88.2715 70.2086C87.7022 71.0259 86.9989 71.9426 86.1728 72.9587C85.3467 73.9748 84.4536 75.0241 83.4935 76.0843C82.5334 77.1446 81.5622 78.1276 80.5687 79.0112C79.5863 79.8947 78.6262 80.6237 77.6885 81.187C76.7507 81.7502 75.8911 82.0374 75.1097 82.0374C74.0603 82.0374 73.4128 81.8607 73.1895 81.4962C72.9551 81.1317 72.7988 80.6568 72.7095 80.0715C72.6202 79.1658 72.8881 78.1497 73.5356 77.0121C74.1719 75.8855 74.8194 74.8584 75.4557 73.9527C76.5051 72.5059 77.3982 71.1695 78.135 69.9435C78.8718 68.7176 79.162 67.5469 79.0281 66.4093C78.9834 65.8681 78.883 65.2606 78.7155 64.609C78.5592 63.9574 78.3136 63.3389 77.9899 62.7756C77.6661 62.2123 77.2531 61.7374 76.7507 61.3508C76.2484 60.9643 75.6009 60.7765 74.8306 60.7765C74.1831 60.7765 73.7142 60.8207 73.424 60.909C73.1226 60.9974 72.609 61.0416 71.8834 61.0416C71.381 61.0416 71.0126 60.9864 70.7894 60.8759C70.5549 60.7655 70.3763 60.6661 70.2424 60.5667C70.7447 59.8377 71.0908 59.0315 71.2694 58.1148C71.448 57.2091 71.4927 56.4581 71.4034 55.8727C71.3141 55.0112 71.0015 54.1718 70.4768 53.3545C69.9521 52.5372 69.0478 52.1286 67.764 52.1286C67.0719 52.1286 66.3686 52.4489 65.6318 53.0784C64.895 53.719 64.2364 54.47 63.6447 55.3536C63.053 56.2372 62.573 57.1539 62.2046 58.1037C61.8362 59.0535 61.7022 59.8267 61.7915 60.412C61.8808 61.0968 62.0148 61.5386 62.2046 61.7374C62.3832 61.9362 62.7293 62.2675 63.2316 62.7204C62.9525 63.2174 62.5172 64.0236 61.9255 65.1281C61.3338 66.2436 60.6752 67.4916 59.9719 68.9053C59.5811 69.6895 59.1681 70.4958 58.755 71.3241C58.5764 71.534 58.409 71.7438 58.2192 71.9647C57.3038 73.0471 56.3102 74.1626 55.2273 75.3002C54.1556 76.4378 53.0839 77.476 52.0346 78.4258C50.9852 79.3756 49.9581 80.1377 48.9757 80.701C47.9934 81.2643 47.1561 81.5073 46.4639 81.4189C45.5932 81.3747 44.8564 81.0986 44.2647 80.6016C43.7624 80.1488 43.3381 79.4088 42.9921 78.3927C42.646 77.3766 42.6125 75.8855 42.8916 73.9417C44.0861 71.2247 45.1578 68.6624 46.1179 66.2657C47.0779 63.869 47.904 61.7374 48.5962 59.8819C49.3776 57.7503 50.0586 55.7843 50.6614 53.973C50.9405 53.1999 51.1526 52.471 51.3089 51.7641C51.4652 51.0572 51.6438 50.3504 51.8225 49.6214C52.1909 49.6214 52.5481 49.6104 52.883 49.5883C53.2291 49.5662 53.5305 49.5552 53.8096 49.5552C55.272 49.5552 56.5558 49.5994 57.661 49.6877C58.755 49.7761 59.7151 49.8644 60.5077 49.9638C61.3115 50.0522 61.9925 50.1626 62.573 50.3062C63.1423 50.4388 63.6558 50.5382 64.1136 50.5823C64.5713 50.6707 64.9843 50.5823 65.3527 50.3062C65.7211 50.0301 65.9779 49.7098 66.1453 49.3232C66.3016 48.9367 66.3686 48.5612 66.3463 48.1967C66.3239 47.8322 66.1453 47.6113 65.8327 47.5119C65.509 47.4236 65.029 47.2469 64.3926 47.0039C63.7452 46.7609 62.9079 46.5069 61.8473 46.2528C60.798 46.0099 59.5253 45.7779 58.0294 45.5681C56.5447 45.3693 54.8366 45.2588 52.9165 45.2588C53.3742 42.9505 53.631 41.0398 53.6756 39.5488C53.7203 38.0577 53.631 37.13 53.3965 36.7655C53.1621 36.4894 52.8049 36.3237 52.3025 36.2575C51.8001 36.1912 51.2754 36.1912 50.7173 36.2575C50.1591 36.3237 49.6567 36.4342 49.1767 36.5998C48.6967 36.7545 48.3841 36.9533 48.2501 37.1742C47.7924 37.8148 47.2789 38.9303 46.7095 40.5428C46.1402 42.1553 45.5485 44.0439 44.9569 46.2197C44.1754 46.3522 43.3828 46.4737 42.5902 46.5621C41.7864 46.6504 40.9491 46.7167 40.0784 46.7609C38.8839 46.8051 37.7899 46.794 36.7851 46.7278C35.7804 46.6615 34.8427 46.5842 33.9719 46.4848C33.6928 46.4848 33.3914 46.6063 33.0453 46.8603C32.6993 47.1143 32.4202 47.4015 32.1857 47.7439C31.9625 48.0862 31.8173 48.4286 31.7727 48.76C31.728 49.1024 31.8843 49.3564 32.2527 49.5441C32.9002 49.8644 33.8714 50.1847 35.1776 50.5271C36.4837 50.8695 37.868 51.0352 39.3304 51.0352C39.9667 51.0352 40.6812 50.991 41.4627 50.9026C42.2441 50.8143 43.0144 50.7259 43.7959 50.6265C43.1484 53.2551 42.5455 55.9831 41.9762 58.8216C41.4068 61.649 40.8822 64.2997 40.4356 66.7737C39.9779 69.2477 39.6095 71.4235 39.3416 73.3011C39.0625 75.1787 38.9062 76.482 38.8616 77.2109C38.7722 78.0724 38.8392 79.0112 39.0625 80.0273C39.2858 81.0434 39.6877 81.9932 40.2682 82.8436C40.8375 83.7051 41.6301 84.4341 42.6348 85.0194C43.6396 85.6048 44.901 85.903 46.4081 85.903C47.4575 85.903 48.7636 85.3397 50.3265 84.2021C51.4652 83.3738 52.6374 82.3687 53.8319 81.209C53.3742 82.1258 53.0728 82.7111 52.9388 82.9762C52.6597 83.5174 52.5704 83.9702 52.6597 84.3347C52.749 84.6991 52.95 84.9311 53.2402 85.0526C53.5416 85.163 53.8877 85.1409 54.2673 84.9863C54.658 84.8317 55.0152 84.5003 55.3278 84.0033C55.4618 83.8266 55.819 83.2633 56.3884 82.3356C56.9577 81.4079 57.661 80.2703 58.4871 78.9339C59.3132 77.5975 60.1951 76.1617 61.1329 74.6154C62.0706 73.0802 62.9637 71.6002 63.8121 70.1976C64.6606 68.7949 65.4085 67.5689 66.0449 66.5308C66.6812 65.4926 67.0942 64.8078 67.284 64.4875C67.6524 64.5759 68.0431 64.7194 68.4562 64.8962C68.8692 65.0729 69.3716 65.1723 69.9633 65.1723C70.3763 65.1723 70.6889 65.1612 70.8898 65.1391C71.0908 65.117 71.2582 65.106 71.3699 65.106C71.4815 65.106 71.5931 65.095 71.7159 65.0729C71.8276 65.0508 72.0285 65.0397 72.2965 65.0397C72.7095 65.0397 73.0109 65.1944 73.1895 65.5147C73.3682 65.8349 73.4686 66.1994 73.4686 66.597C73.4686 67.2376 73.223 68.0107 72.743 68.9385C72.263 69.8662 71.6266 70.9928 70.8563 72.3071C70.5326 72.9477 70.1754 73.5883 69.7958 74.2399C69.4051 74.9026 69.0367 75.5542 68.7018 76.2058C68.3557 76.8685 68.0543 77.4981 67.8087 78.1055C67.5519 78.713 67.4068 79.2983 67.3622 79.8395C67.3175 80.5243 67.3956 81.2532 67.6078 82.0484C67.8087 82.8436 68.1548 83.5726 68.6348 84.2242C69.1148 84.8759 69.74 85.4391 70.5214 85.892C71.3029 86.3448 72.2853 86.5767 73.4798 86.5767C74.6296 86.5767 75.8241 86.2344 77.0856 85.5606C78.3471 84.8759 79.6086 84.0144 80.8589 82.9431C82.1204 81.8828 83.3149 80.701 84.4647 79.4088C85.6146 78.1166 86.6528 76.8575 87.5905 75.6315C87.7357 75.4438 87.8808 75.245 88.0259 75.0572C87.9031 76.9237 87.9031 78.4148 88.0371 79.4971C88.0817 80.2703 88.3162 80.9992 88.7292 81.7061C89.1423 82.4129 89.6558 83.0204 90.2698 83.5395C90.8838 84.0586 91.5759 84.4672 92.3351 84.7654C93.0942 85.0636 93.8533 85.1851 94.6348 85.1409C95.5948 85.0967 96.8451 84.5003 98.3746 83.3738C99.904 82.2362 101.478 80.8667 103.086 79.2652C104.693 77.6527 106.2 75.9849 107.618 74.2399C107.64 74.2068 107.663 74.1847 107.685 74.1515C107.495 74.9688 107.305 75.753 107.138 76.5151C106.68 78.3264 106.223 80.1377 105.765 81.949C105.262 83.8487 104.671 86.2123 103.979 89.0176C103.342 91.4143 102.572 94.4074 101.679 97.9858C100.786 101.564 99.703 105.783 98.4192 110.632C98.5978 111.129 98.8323 111.549 99.1114 111.891C99.3904 112.233 99.6584 112.509 99.9375 112.741C100.261 113.018 100.585 113.216 100.898 113.349C101.813 113.713 102.628 113.802 103.331 113.625C104.046 113.448 104.537 112.741 104.805 111.515C105.586 107.031 106.323 103.033 107.037 99.521C107.752 96.0088 108.355 93.0268 108.857 90.5859C109.449 87.7364 110.029 85.2182 110.576 83.0425C110.621 82.8216 110.654 82.6338 110.677 82.5013C110.699 82.3687 110.733 82.2031 110.777 82.0264C110.911 82.5234 111.101 83.0314 111.324 83.5505C111.548 84.0696 111.849 84.5445 112.217 84.9753C112.586 85.406 113.055 85.7484 113.624 85.9914C114.193 86.2343 114.874 86.3669 115.656 86.3669C116.482 86.3669 117.33 86.2012 118.201 85.8588C119.072 85.5164 119.92 85.0305 120.746 84.4009C121.07 84.5335 121.338 84.666 121.572 84.7765C121.796 84.8869 122.041 84.9974 122.298 85.1188C122.544 85.2293 122.856 85.3066 123.225 85.3618C123.593 85.406 124.073 85.4281 124.665 85.4281C125.904 85.4281 127.177 85.0968 128.483 84.4451C129.789 83.7935 131.061 82.9651 132.301 81.9601C133.54 80.9661 134.712 79.8506 135.84 78.6246C136.956 77.3987 137.961 76.2279 138.831 75.0903C139.702 73.9638 140.439 72.9366 141.031 72.031C141.622 71.1253 142.013 70.4626 142.203 70.065C142.482 69.4797 142.616 68.9937 142.616 68.6071C142.56 68.2316 142.471 67.9666 142.281 67.834ZM121.372 76.4267C120.612 77.4428 119.898 78.3595 119.206 79.1768C118.112 78.5915 117.163 78.0282 116.393 77.5091C115.611 76.99 114.975 76.7249 114.472 76.7249C114.015 76.7249 113.557 76.7912 113.099 76.9237C112.642 77.0563 112.229 77.2661 111.86 77.5312C112.184 76.1285 112.463 74.9136 112.72 73.8975C112.965 72.8814 113.211 71.9868 113.445 71.2137C115.187 68.5851 116.895 66.4424 118.558 64.7857C120.233 63.129 121.773 62.3007 123.191 62.3007C124.151 62.3007 124.843 62.6872 125.256 63.4603C125.669 64.2335 125.826 65.2938 125.736 66.6522C125.692 67.6904 125.446 68.7839 125.011 69.9104C124.575 71.048 124.051 72.1525 123.426 73.2459C122.812 74.3503 122.119 75.4106 121.372 76.4267Z" fill="#FFB740"/>
</svg>
