<svg width="54" height="54" viewBox="0 0 54 54" fill="none" xmlns="http://www.w3.org/2000/svg">
<path d="M42.75 34.155V15.75C42.75 10.7775 38.7225 6.75 33.75 6.75C28.7775 6.75 24.75 10.7775 24.75 15.75V38.25C24.75 40.725 22.725 42.75 20.25 42.75C17.775 42.75 15.75 40.725 15.75 38.25V19.845C18.36 18.9 20.25 16.425 20.25 13.5C20.25 9.765 17.235 6.75 13.5 6.75C9.765 6.75 6.75 9.765 6.75 13.5C6.75 16.425 8.64 18.9 11.25 19.845V38.25C11.25 43.2225 15.2775 47.25 20.25 47.25C25.2225 47.25 29.25 43.2225 29.25 38.25V15.75C29.25 13.275 31.275 11.25 33.75 11.25C36.225 11.25 38.25 13.275 38.25 15.75V34.155C35.64 35.0775 33.75 37.5525 33.75 40.5C33.75 44.235 36.765 47.25 40.5 47.25C44.235 47.25 47.25 44.235 47.25 40.5C47.25 37.575 45.36 35.1 42.75 34.155ZM13.5 15.75C12.2625 15.75 11.25 14.7375 11.25 13.5C11.25 12.2625 12.2625 11.25 13.5 11.25C14.7375 11.25 15.75 12.2625 15.75 13.5C15.75 14.7375 14.7375 15.75 13.5 15.75ZM40.5 42.75C39.2625 42.75 38.25 41.7375 38.25 40.5C38.25 39.2625 39.2625 38.25 40.5 38.25C41.7375 38.25 42.75 39.2625 42.75 40.5C42.75 41.7375 41.7375 42.75 40.5 42.75Z" fill="#FFB740"/>
</svg>
