<svg width="32" height="32" viewBox="0 0 32 32" fill="none" xmlns="http://www.w3.org/2000/svg">
<path d="M31.2688 27.7283L23.7875 20.2478C25.4888 17.7225 26.3282 14.5672 25.8788 11.205C25.1125 5.48627 20.425 0.83239 14.7 0.107654C6.18808 -0.969293 -0.969451 6.18744 0.107678 14.6984C0.832681 20.4253 5.4877 25.116 11.2077 25.8785C14.5702 26.3277 17.7265 25.4888 20.2515 23.7874L27.7328 31.2679C28.709 32.244 30.2922 32.244 31.2684 31.2679C32.2438 30.2905 32.2438 28.7032 31.2688 27.7283ZM4.9437 12.9986C4.9437 8.58781 8.53246 4.99944 12.9437 4.99944C17.355 4.99944 20.9438 8.58781 20.9438 12.9986C20.9438 17.4094 17.355 20.9977 12.9437 20.9977C8.53246 20.9977 4.9437 17.4106 4.9437 12.9986Z" fill="#FFB740"/>
</svg>
